Varta-SemiBold.ufo
<glyph name="numbersign" format="1">
  <advance width="1030"/>
  <unicode hex="0023"/>
  <outline>
    <contour>
      <point x="183" y="0" type="line" name="hr00"/>
      <point x="305" y="0" type="line"/>
      <point x="355" y="412" type="line"/>
      <point x="615" y="412" type="line"/>
      <point x="566" y="0" type="line"/>
      <point x="687" y="0" type="line"/>
      <point x="737" y="412" type="line"/>
      <point x="927" y="412" type="line"/>
      <point x="927" y="542" type="line"/>
      <point x="753" y="542" type="line"/>
      <point x="788" y="831" type="line"/>
      <point x="968" y="831" type="line"/>
      <point x="968" y="963" type="line"/>
      <point x="803" y="963" type="line"/>
      <point x="851" y="1331" type="line"/>
      <point x="730" y="1331" type="line"/>
      <point x="682" y="963" type="line"/>
      <point x="421" y="963" type="line"/>
      <point x="467" y="1331" type="line"/>
      <point x="347" y="1331" type="line"/>
      <point x="300" y="963" type="line"/>
      <point x="113" y="963" type="line"/>
      <point x="113" y="831" type="line"/>
      <point x="284" y="831" type="line"/>
      <point x="249" y="542" type="line"/>
      <point x="72" y="542" type="line"/>
      <point x="72" y="412" type="line"/>
      <point x="233" y="412" type="line"/>
    </contour>
    <contour>
      <point x="371" y="542" type="line"/>
      <point x="406" y="831" type="line"/>
      <point x="666" y="831" type="line"/>
      <point x="631" y="542" type="line"/>
    </contour>
  </outline>
</glyph>
<glyph name="ampersand" format="1">
  <advance width="1269"/>
  <unicode hex="0026"/>
  <outline>
    <contour>
      <point x="249" y="361" type="curve" smooth="yes" name="hr01"/>
      <point x="249" y="463"/>
      <point x="315" y="535"/>
      <point x="402" y="604" type="curve"/>
      <point x="494" y="469"/>
      <point x="617" y="335"/>
      <point x="744" y="225" type="curve"/>
      <point x="675" y="165"/>
      <point x="591" y="128"/>
      <point x="502" y="128" type="curve" smooth="yes"/>
      <point x="359" y="128"/>
      <point x="249" y="221"/>
    </contour>
    <contour>
      <point x="401" y="1045" type="curve" smooth="yes" name="hr02"/>
      <point x="401" y="1152"/>
      <point x="458" y="1231"/>
      <point x="552" y="1231" type="curve" smooth="yes"/>
      <point x="637" y="1231"/>
      <point x="679" y="1167"/>
      <point x="679" y="1092" type="curve" smooth="yes"/>
      <point x="679" y="966"/>
      <point x="579" y="896"/>
      <point x="462" y="819" type="curve"/>
      <point x="425" y="896"/>
      <point x="401" y="976"/>
    </contour>
    <contour>
      <point x="1238" y="134" type="line"/>
      <point x="1165" y="152"/>
      <point x="1080" y="195"/>
      <point x="989" y="255" type="curve"/>
      <point x="1095" y="395"/>
      <point x="1170" y="557"/>
      <point x="1222" y="730" type="curve"/>
      <point x="1043" y="730" type="line"/>
      <point x="1003" y="582"/>
      <point x="941" y="453"/>
      <point x="861" y="347" type="curve"/>
      <point x="739" y="444"/>
      <point x="615" y="573"/>
      <point x="535" y="700" type="curve"/>
      <point x="683" y="805"/>
      <point x="834" y="906"/>
      <point x="834" y="1098" type="curve" smooth="yes"/>
      <point x="834" y="1261"/>
      <point x="725" y="1367"/>
      <point x="553" y="1367" type="curve" smooth="yes"/>
      <point x="360" y="1367"/>
      <point x="237" y="1226"/>
      <point x="237" y="1046" type="curve" smooth="yes"/>
      <point x="237" y="949"/>
      <point x="267" y="842"/>
      <point x="328" y="732" type="curve"/>
      <point x="192" y="640"/>
      <point x="63" y="536"/>
      <point x="63" y="349" type="curve" smooth="yes" name="hr03"/>
      <point x="63" y="135"/>
      <point x="226" y="-25"/>
      <point x="479" y="-25" type="curve" smooth="yes"/>
      <point x="643" y="-25"/>
      <point x="770" y="34"/>
      <point x="874" y="125" type="curve"/>
      <point x="984" y="51"/>
      <point x="1090" y="1"/>
      <point x="1187" y="-25" type="curve"/>
    </contour>
  </outline>
</glyph>
<glyph name="slash" format="1">
  <advance width="713"/>
  <unicode hex="002F"/>
  <outline>
    <contour>
      <point x="21" y="-328" type="line" name="hr00"/>
      <point x="159" y="-328" type="line"/>
      <point x="680" y="1454" type="line"/>
      <point x="543" y="1454" type="line"/>
    </contour>
  </outline>
</glyph>
<glyph name="question" format="1">
  <advance width="884"/>
  <unicode hex="003F"/>
  <outline>
    <contour>
      <point x="326" y="418" type="curve" name="hr01"/>
      <point x="494" y="418" type="line"/>
      <point x="453" y="705"/>
      <point x="788" y="760"/>
      <point x="788" y="1070" type="curve" smooth="yes"/>
      <point x="788" y="1299"/>
      <point x="654" y="1397"/>
      <point x="430" y="1397" type="curve" smooth="yes"/>
      <point x="286" y="1397"/>
      <point x="160" y="1335"/>
      <point x="73" y="1235" type="curve"/>
      <point x="181" y="1127" type="line"/>
      <point x="244" y="1197"/>
      <point x="315" y="1235"/>
      <point x="411" y="1235" type="curve" smooth="yes"/>
      <point x="539" y="1235"/>
      <point x="602" y="1183"/>
      <point x="602" y="1059" type="curve" smooth="yes"/>
      <point x="602" y="808"/>
      <point x="271" y="746"/>
    </contour>
    <contour>
      <point x="284" y="113" type="curve" smooth="yes" name="hr02"/>
      <point x="284" y="34"/>
      <point x="341" y="-25"/>
      <point x="415" y="-25" type="curve" smooth="yes"/>
      <point x="489" y="-25"/>
      <point x="549" y="34"/>
      <point x="549" y="113" type="curve" smooth="yes"/>
      <point x="549" y="197"/>
      <point x="489" y="255"/>
      <point x="415" y="255" type="curve" smooth="yes"/>
      <point x="341" y="255"/>
      <point x="284" y="197"/>
    </contour>
  </outline>
</glyph>
<glyph name="J" format="1">
  <advance width="983"/>
  <unicode hex="004A"/>
  <outline>
    <contour>
      <point x="54" y="195" type="line" name="hr00"/>
      <point x="134" y="50"/>
      <point x="260" y="-25"/>
      <point x="437" y="-25" type="curve" smooth="yes"/>
      <point x="707" y="-25"/>
      <point x="816" y="159"/>
      <point x="816" y="395" type="curve" smooth="yes"/>
      <point x="816" y="1342" type="line"/>
      <point x="621" y="1342" type="line"/>
      <point x="621" y="414" type="line"/>
      <point x="621" y="213"/>
      <point x="555" y="145"/>
      <point x="418" y="145" type="curve" smooth="yes"/>
      <point x="326" y="145"/>
      <point x="250" y="190"/>
      <point x="190" y="293" type="curve"/>
    </contour>
    <contour>
      <point x="714" y="1050" type="move" name="top"/>
    </contour>
  </outline>
</glyph>
<glyph name="O" format="1">
  <advance width="1359"/>
  <unicode hex="004F"/>
  <outline>
    <contour>
      <point x="678" y="-25" type="curve" smooth="yes" name="hr00"/>
      <point x="1030" y="-25"/>
      <point x="1258" y="228"/>
      <point x="1258" y="674" type="curve" smooth="yes"/>
      <point x="1258" y="1117"/>
      <point x="1030" y="1367"/>
      <point x="678" y="1367" type="curve" smooth="yes"/>
      <point x="324" y="1367"/>
      <point x="99" y="1119"/>
      <point x="99" y="674" type="curve" smooth="yes"/>
      <point x="99" y="228"/>
      <point x="324" y="-25"/>
    </contour>
    <contour>
      <point x="678" y="145" type="curve" smooth="yes"/>
      <point x="438" y="145"/>
      <point x="299" y="341"/>
      <point x="299" y="674" type="curve" smooth="yes"/>
      <point x="299" y="1006"/>
      <point x="438" y="1197"/>
      <point x="678" y="1197" type="curve" smooth="yes"/>
      <point x="915" y="1197"/>
      <point x="1058" y="1006"/>
      <point x="1058" y="674" type="curve" smooth="yes"/>
      <point x="1058" y="341"/>
      <point x="915" y="145"/>
    </contour>
    <contour>
      <point x="678" y="1050" type="move" name="top"/>
    </contour>
  </outline>
</glyph>
<glyph name="V" format="1">
  <advance width="1061"/>
  <unicode hex="0056"/>
  <outline>
    <contour>
      <point x="417" y="0" type="line" name="hr01"/>
      <point x="646" y="0" type="line"/>
      <point x="1068" y="1342" type="line"/>
      <point x="869" y="1342" type="line"/>
      <point x="664" y="635" type="line"/>
      <point x="620" y="479"/>
      <point x="588" y="350"/>
      <point x="539" y="194" type="curve" name="hr02"/>
      <point x="531" y="194" type="line"/>
      <point x="483" y="350"/>
      <point x="452" y="479"/>
      <point x="406" y="635" type="curve" smooth="yes"/>
      <point x="199" y="1342" type="line"/>
      <point x="-6" y="1342" type="line"/>
    </contour>
    <contour>
      <point x="531" y="1050" type="move" name="top"/>
    </contour>
  </outline>
</glyph>
<glyph name="b" format="1">
  <advance width="1144"/>
  <unicode hex="0062"/>
  <outline>
    <contour>
      <point x="162" y="0" type="line" name="hr01"/>
      <point x="315" y="0" type="line"/>
      <point x="331" y="99" type="line"/>
      <point x="338" y="99" type="line"/>
      <point x="425" y="20"/>
      <point x="526" y="-25"/>
      <point x="621" y="-25" type="curve" smooth="yes" name="hr02"/>
      <point x="855" y="-25"/>
      <point x="1048" y="161"/>
      <point x="1048" y="514" type="curve" smooth="yes"/>
      <point x="1048" y="832"/>
      <point x="921" y="1024"/>
      <point x="656" y="1024" type="curve" smooth="yes"/>
      <point x="544" y="1024"/>
      <point x="437" y="968"/>
      <point x="349" y="890" type="curve"/>
      <point x="354" y="1065" type="line"/>
      <point x="354" y="1454" type="line"/>
      <point x="162" y="1454" type="line"/>
    </contour>
    <contour>
      <point x="354" y="233" type="curve"/>
      <point x="354" y="735" type="line"/>
      <point x="441" y="819"/>
      <point x="522" y="864"/>
      <point x="605" y="864" type="curve" smooth="yes"/>
      <point x="788" y="864"/>
      <point x="849" y="730"/>
      <point x="849" y="511" type="curve" smooth="yes"/>
      <point x="849" y="266"/>
      <point x="742" y="136"/>
      <point x="584" y="136" type="curve" smooth="yes"/>
      <point x="518" y="136"/>
      <point x="436" y="162"/>
    </contour>
    <contour>
      <point x="722" y="1050" type="move" name="top"/>
    </contour>
  </outline>
</glyph>
<glyph name="e" format="1">
  <advance width="1024"/>
  <unicode hex="0065"/>
  <outline>
    <contour>
      <point x="90" y="499" type="curve" smooth="yes" name="hr00"/>
      <point x="90" y="162"/>
      <point x="304" y="-25"/>
      <point x="574" y="-25" type="curve" smooth="yes"/>
      <point x="707" y="-25"/>
      <point x="817" y="15"/>
      <point x="906" y="73" type="curve"/>
      <point x="840" y="196" type="line"/>
      <point x="766" y="149"/>
      <point x="689" y="128"/>
      <point x="599" y="128" type="curve" smooth="yes"/>
      <point x="418" y="128"/>
      <point x="292" y="244"/>
      <point x="279" y="455" type="curve"/>
      <point x="940" y="455" type="line"/>
      <point x="944" y="479"/>
      <point x="947" y="515"/>
      <point x="947" y="553" type="curve" smooth="yes"/>
      <point x="947" y="845"/>
      <point x="816" y="1024"/>
      <point x="542" y="1024" type="curve" smooth="yes"/>
      <point x="298" y="1024"/>
      <point x="90" y="835"/>
    </contour>
    <contour>
      <point x="277" y="579" type="line"/>
      <point x="296" y="772"/>
      <point x="407" y="873"/>
      <point x="546" y="873" type="curve" smooth="yes"/>
      <point x="703" y="873"/>
      <point x="780" y="774"/>
      <point x="780" y="579" type="curve"/>
    </contour>
    <contour>
      <point x="543" y="1050" type="move" name="top"/>
    </contour>
  </outline>
</glyph>
<glyph name="i" format="1">
  <advance width="515"/>
  <unicode hex="0069"/>
  <outline>
    <contour>
      <point x="259" y="1194" type="curve" smooth="yes" name="hr01"/>
      <point x="331" y="1194"/>
      <point x="387" y="1242"/>
      <point x="387" y="1312" type="curve" smooth="yes"/>
      <point x="387" y="1382"/>
      <point x="331" y="1428"/>
      <point x="259" y="1428" type="curve" smooth="yes"/>
      <point x="187" y="1428"/>
      <point x="132" y="1382"/>
      <point x="132" y="1312" type="curve" smooth="yes"/>
      <point x="132" y="1242"/>
      <point x="187" y="1194"/>
    </contour>
    <contour>
      <point x="162" y="0" type="line" name="hr02"/>
      <point x="354" y="0" type="line"/>
      <point x="354" y="999" type="line"/>
      <point x="162" y="999" type="line"/>
    </contour>
    <contour>
      <point x="259" y="1050" type="move" name="top"/>
    </contour>
  </outline>
</glyph>
<glyph name="m" format="1">
  <advance width="1708"/>
  <unicode hex="006D"/>
  <outline>
    <contour>
      <point x="162" y="0" type="line" name="hr01"/>
      <point x="354" y="0" type="line"/>
      <point x="354" y="715" type="line"/>
      <point x="441" y="810"/>
      <point x="520" y="858"/>
      <point x="590" y="858" type="curve" smooth="yes"/>
      <point x="717" y="858"/>
      <point x="764" y="791"/>
      <point x="764" y="611" type="curve" smooth="yes"/>
      <point x="764" y="0" type="line"/>
      <point x="957" y="0" type="line"/>
      <point x="957" y="719" type="line"/>
      <point x="1044" y="814"/>
      <point x="1120" y="858"/>
      <point x="1193" y="858" type="curve" smooth="yes"/>
      <point x="1319" y="858"/>
      <point x="1366" y="789"/>
      <point x="1366" y="609" type="curve" smooth="yes"/>
      <point x="1366" y="0" type="line"/>
      <point x="1558" y="0" type="line"/>
      <point x="1558" y="635" type="line"/>
      <point x="1558" y="889"/>
      <point x="1469" y="1024"/>
      <point x="1253" y="1024" type="curve" smooth="yes"/>
      <point x="1129" y="1024"/>
      <point x="1029" y="950"/>
      <point x="926" y="841" type="curve"/>
      <point x="885" y="961"/>
      <point x="810" y="1024"/>
      <point x="653" y="1024" type="curve" smooth="yes"/>
      <point x="531" y="1024"/>
      <point x="428" y="950"/>
      <point x="343" y="858" type="curve"/>
      <point x="336" y="858" type="line"/>
      <point x="320" y="999" type="line" name="hr02"/>
      <point x="162" y="999" type="line"/>
    </contour>
    <contour>
      <point x="860" y="1050" type="move" name="top"/>
    </contour>
  </outline>
</glyph>
<glyph name="t" format="1">
  <advance width="709"/>
  <unicode hex="0074"/>
  <outline>
    <contour>
      <point x="193" y="318" type="line" name="hr00"/>
      <point x="193" y="115"/>
      <point x="269" y="-25"/>
      <point x="489" y="-25" type="curve" smooth="yes"/>
      <point x="558" y="-25"/>
      <point x="626" y="-6"/>
      <point x="681" y="12" type="curve"/>
      <point x="646" y="156" type="line"/>
      <point x="614" y="144"/>
      <point x="570" y="131"/>
      <point x="536" y="131" type="curve" smooth="yes"/>
      <point x="428" y="131"/>
      <point x="387" y="196"/>
      <point x="387" y="317" type="curve" smooth="yes"/>
      <point x="387" y="844" type="line"/>
      <point x="650" y="844" type="line"/>
      <point x="650" y="999" type="line"/>
      <point x="387" y="999" type="line"/>
      <point x="387" y="1276" type="line"/>
      <point x="225" y="1276" type="line"/>
      <point x="202" y="999" type="line"/>
      <point x="46" y="988" type="line"/>
      <point x="46" y="844" type="line"/>
      <point x="193" y="844" type="line"/>
    </contour>
    <contour>
      <point x="292" y="1276" type="move" name="top"/>
    </contour>
  </outline>
</glyph>
<glyph name="v" format="1">
  <advance width="977"/>
  <unicode hex="0076"/>
  <outline>
    <contour>
      <point x="380" y="0" type="line" name="hr00"/>
      <point x="605" y="0" type="line"/>
      <point x="953" y="999" type="line"/>
      <point x="765" y="999" type="line"/>
      <point x="587" y="450" type="line"/>
      <point x="558" y="351"/>
      <point x="526" y="249"/>
      <point x="498" y="153" type="curve"/>
      <point x="490" y="153" type="line"/>
      <point x="461" y="249"/>
      <point x="429" y="351"/>
      <point x="400" y="450" type="curve"/>
      <point x="223" y="999" type="line"/>
      <point x="25" y="999" type="line"/>
    </contour>
    <contour>
      <point x="489" y="1050" type="move" name="top"/>
    </contour>
  </outline>
</glyph>
<glyph name="y" format="1">
  <advance width="976"/>
  <unicode hex="0079"/>
  <outline>
    <contour>
      <point x="110" y="-251" type="curve" name="hr01"/>
      <point x="74" y="-402" type="line" name="hr02"/>
      <point x="108" y="-414"/>
      <point x="147" y="-422"/>
      <point x="195" y="-422" type="curve" smooth="yes" name="hr03"/>
      <point x="403" y="-422"/>
      <point x="507" y="-277"/>
      <point x="581" y="-69" type="curve" smooth="yes"/>
      <point x="952" y="999" type="line"/>
      <point x="762" y="999" type="line"/>
      <point x="596" y="469" type="line"/>
      <point x="569" y="379"/>
      <point x="544" y="278"/>
      <point x="516" y="187" type="curve"/>
      <point x="508" y="187" type="line"/>
      <point x="478" y="281"/>
      <point x="445" y="382"/>
      <point x="414" y="469" type="curve" smooth="yes"/>
      <point x="223" y="999" type="line"/>
      <point x="25" y="999" type="line"/>
      <point x="423" y="3" type="line"/>
      <point x="401" y="-67" type="line"/>
      <point x="363" y="-182"/>
      <point x="295" y="-265"/>
      <point x="185" y="-265" type="curve" smooth="yes"/>
      <point x="161" y="-265"/>
      <point x="131" y="-257"/>
    </contour>
    <contour>
      <point x="488" y="1050" type="move" name="top"/>
    </contour>
  </outline>
</glyph>
<glyph name="brokenbar" format="1">
  <advance width="504"/>
  <unicode hex="00A6"/>
  <outline>
    <contour>
      <point x="186" y="604" type="line" name="hr00"/>
      <point x="319" y="604" type="line"/>
      <point x="319" y="1536" type="line"/>
      <point x="186" y="1536" type="line"/>
    </contour>
    <contour>
      <point x="186" y="434" type="line"/>
      <point x="186" y="-512" type="line"/>
      <point x="319" y="-512" type="line"/>
      <point x="319" y="434" type="line"/>
    </contour>
  </outline>
</glyph>
<glyph name="logicalnot" format="1">
  <advance width="1030"/>
  <unicode hex="00AC"/>
  <outline>
    <contour>
      <point x="70" y="604" type="line" name="hr00"/>
      <point x="809" y="604" type="line"/>
      <point x="809" y="209" type="line"/>
      <point x="960" y="209" type="line"/>
      <point x="960" y="747" type="line"/>
      <point x="70" y="747" type="line"/>
    </contour>
  </outline>
</glyph>
<glyph name="macron" format="1">
  <advance width="1115"/>
  <unicode hex="00AF"/>
  <outline>
    <contour>
      <point x="302" y="1228" type="line" name="hr00"/>
      <point x="815" y="1228" type="line"/>
      <point x="815" y="1358" type="line"/>
      <point x="302" y="1358" type="line"/>
    </contour>
    <contour>
      <point x="558" y="1050" type="move" name="_top"/>
    </contour>
  </outline>
</glyph>
<glyph name="plusminus" format="1">
  <advance width="1030"/>
  <unicode hex="00B1"/>
  <outline>
    <contour>
      <point x="440" y="272" type="line" name="hr00"/>
      <point x="589" y="272" type="line"/>
      <point x="589" y="619" type="line"/>
      <point x="960" y="619" type="line"/>
      <point x="960" y="762" type="line"/>
      <point x="589" y="762" type="line"/>
      <point x="589" y="1143" type="line"/>
      <point x="440" y="1143" type="line"/>
      <point x="440" y="762" type="line"/>
      <point x="70" y="762" type="line"/>
      <point x="70" y="619" type="line"/>
      <point x="440" y="619" type="line"/>
    </contour>
    <contour>
      <point x="70" y="0" type="line"/>
      <point x="960" y="0" type="line"/>
      <point x="960" y="143" type="line"/>
      <point x="70" y="143" type="line"/>
    </contour>
  </outline>
</glyph>
<glyph name="multiply" format="1">
  <advance width="1030"/>
  <unicode hex="00D7"/>
  <outline>
    <contour>
      <point x="203" y="253" type="line" name="hr00"/>
      <point x="516" y="575" type="line"/>
      <point x="827" y="253" type="line"/>
      <point x="927" y="356" type="line"/>
      <point x="615" y="676" type="line"/>
      <point x="927" y="994" type="line"/>
      <point x="827" y="1097" type="line"/>
      <point x="516" y="777" type="line"/>
      <point x="203" y="1097" type="line"/>
      <point x="101" y="994" type="line"/>
      <point x="414" y="676" type="line"/>
      <point x="101" y="356" type="line"/>
    </contour>
  </outline>
</glyph>
<glyph name="dotlessj" format="1">
  <advance width="518"/>
  <unicode hex="0237"/>
  <outline>
    <contour>
      <point x="164" y="999" type="line" name="hr00"/>
      <point x="164" y="-93" type="line" smooth="yes"/>
      <point x="164" y="-211"/>
      <point x="138" y="-281"/>
      <point x="44" y="-281" type="curve" smooth="yes"/>
      <point x="10" y="-281"/>
      <point x="-23" y="-274"/>
      <point x="-48" y="-266" type="curve"/>
      <point x="-86" y="-410" type="line"/>
      <point x="-50" y="-424"/>
      <point x="1" y="-436"/>
      <point x="67" y="-436" type="curve" smooth="yes"/>
      <point x="280" y="-436"/>
      <point x="356" y="-297"/>
      <point x="356" y="-91" type="curve" smooth="yes"/>
      <point x="356" y="999" type="line"/>
    </contour>
    <contour>
      <point x="262" y="1050" type="move" name="top"/>
    </contour>
  </outline>
</glyph>
<glyph name="r.sups" format="1">
  <advance width="504"/>
  <unicode hex="02B3"/>
  <outline>
    <contour>
      <point x="102" y="532" type="line" name="hr01"/>
      <point x="248" y="532" type="line"/>
      <point x="248" y="943" type="line"/>
      <point x="291" y="1046"/>
      <point x="355" y="1082"/>
      <point x="411" y="1082" type="curve" smooth="yes" name="hr02"/>
      <point x="435" y="1082"/>
      <point x="462" y="1075"/>
      <point x="478" y="1071" type="curve"/>
      <point x="506" y="1197" type="line" name="hr03"/>
      <point x="488" y="1205"/>
      <point x="461" y="1211"/>
      <point x="426" y="1211" type="curve" smooth="yes" name="hr04"/>
      <point x="355" y="1211"/>
      <point x="290" y="1164"/>
      <point x="238" y="1078" type="curve"/>
      <point x="232" y="1078" type="line"/>
      <point x="218" y="1195" type="line" name="hr05"/>
      <point x="102" y="1195" type="line"/>
    </contour>
  </outline>
</glyph>
<glyph name="w.sups" format="1">
  <advance width="1011"/>
  <unicode hex="02B7"/>
  <outline>
    <contour>
      <point x="212" y="532" type="line" name="hr01"/>
      <point x="381" y="532" type="line"/>
      <point x="464" y="854" type="line"/>
      <point x="505" y="1041" type="line" name="hr02"/>
      <point x="509" y="1041" type="line"/>
      <point x="550" y="854" type="line"/>
      <point x="633" y="532" type="line"/>
      <point x="803" y="532" type="line"/>
      <point x="978" y="1195" type="line"/>
      <point x="844" y="1195" type="line"/>
      <point x="761" y="839" type="line"/>
      <point x="720" y="649" type="line"/>
      <point x="712" y="649" type="line"/>
      <point x="668" y="839" type="line"/>
      <point x="569" y="1195" type="line"/>
      <point x="444" y="1195" type="line"/>
      <point x="352" y="839" type="line"/>
      <point x="308" y="649" type="line"/>
      <point x="301" y="649" type="line"/>
      <point x="263" y="839" type="line"/>
      <point x="179" y="1195" type="line"/>
      <point x="33" y="1195" type="line"/>
    </contour>
  </outline>
</glyph>
<glyph name="uni02C8" format="1">
  <advance width="245"/>
  <unicode hex="02C8"/>
  <outline>
    <contour>
      <point x="54" y="1095" type="line" name="hr00"/>
      <point x="191" y="1095" type="line"/>
      <point x="203" y="1475" type="line"/>
      <point x="42" y="1475" type="line"/>
    </contour>
  </outline>
</glyph>
<glyph name="uni0307" format="1">
  <advance width="600"/>
  <unicode hex="0307"/>
  <outline>
    <contour>
      <point x="0" y="1194" type="curve" smooth="yes"/>
      <point x="69" y="1194"/>
      <point x="121" y="1242"/>
      <point x="121" y="1313" type="curve" smooth="yes"/>
      <point x="121" y="1382"/>
      <point x="69" y="1432"/>
      <point x="0" y="1432" type="curve" smooth="yes"/>
      <point x="-69" y="1432"/>
      <point x="-121" y="1382"/>
      <point x="-121" y="1313" type="curve" smooth="yes"/>
      <point x="-121" y="1242"/>
      <point x="-69" y="1194"/>
    </contour>
    <contour>
      <point x="0" y="1044" type="move" name="_mark0"/>
    </contour>
  </outline>
</glyph>
<glyph name="uni032E" format="1">
  <advance width="0"/>
  <unicode hex="032E"/>
  <outline>
    <contour>
      <point x="0" y="-423" type="curve" smooth="yes" name="hr00"/>
      <point x="179" y="-423"/>
      <point x="255" y="-285"/>
      <point x="263" y="-159" type="curve"/>
      <point x="147" y="-159" type="line"/>
      <point x="137" y="-237"/>
      <point x="92" y="-308"/>
      <point x="0" y="-308" type="curve" smooth="yes"/>
      <point x="-92" y="-308"/>
      <point x="-137" y="-237"/>
      <point x="-147" y="-159" type="curve"/>
      <point x="-263" y="-159" type="line"/>
      <point x="-255" y="-285"/>
      <point x="-179" y="-423"/>
    </contour>
  </outline>
</glyph>
<glyph name="i-deva" format="1">
  <advance width="1040"/>
  <unicode hex="0907"/>
  <outline>
    <contour>
      <point x="-18" y="1277" type="line"/>
      <point x="-18" y="1114" type="line"/>
      <point x="1057" y="1114" type="line"/>
      <point x="1057" y="1277" type="line"/>
    </contour>
    <contour>
      <point x="659" y="1207" type="line"/>
      <point x="659" y="761" type="line"/>
      <point x="846" y="761" type="line"/>
      <point x="846" y="1207" type="line"/>
    </contour>
    <contour>
      <point x="387" y="929" type="line" smooth="yes"/>
      <point x="181" y="927"/>
      <point x="102" y="847"/>
      <point x="102" y="706" type="curve" smooth="yes"/>
      <point x="102" y="583"/>
      <point x="159" y="438"/>
      <point x="226" y="384" type="curve" smooth="yes"/>
      <point x="258" y="359"/>
      <point x="282" y="355"/>
      <point x="313" y="359" type="curve" smooth="yes"/>
      <point x="375" y="366"/>
      <point x="563" y="386"/>
      <point x="650" y="386" type="curve" smooth="yes"/>
      <point x="769" y="386"/>
      <point x="801" y="346"/>
      <point x="800" y="275" type="curve" smooth="yes"/>
      <point x="798" y="189"/>
      <point x="744" y="113"/>
      <point x="541" y="113" type="curve" smooth="yes"/>
      <point x="457" y="113"/>
      <point x="371" y="124"/>
      <point x="252" y="176" type="curve"/>
      <point x="359" y="87" type="line"/>
      <point x="258" y="280" type="line"/>
      <point x="98" y="250" type="line"/>
      <point x="93" y="223"/>
      <point x="90" y="191"/>
      <point x="90" y="171" type="curve" smooth="yes"/>
      <point x="90" y="39"/>
      <point x="204" y="-7"/>
      <point x="330" y="-43" type="curve"/>
      <point x="339" y="-12" type="line"/>
      <point x="407" y="-39"/>
      <point x="476" y="-53"/>
      <point x="551" y="-53" type="curve"/>
      <point x="803" y="-53"/>
      <point x="975" y="65"/>
      <point x="975" y="296" type="curve" smooth="yes"/>
      <point x="975" y="521"/>
      <point x="821" y="558"/>
      <point x="661" y="557" type="curve" smooth="yes"/>
      <point x="537" y="557"/>
      <point x="345" y="536"/>
      <point x="284" y="522" type="curve"/>
      <point x="309" y="513" type="line"/>
      <point x="289" y="544"/>
      <point x="271" y="601"/>
      <point x="271" y="655" type="curve" smooth="yes"/>
      <point x="271" y="729"/>
      <point x="301" y="761"/>
      <point x="424" y="761" type="curve" smooth="yes"/>
      <point x="776" y="761" type="line"/>
      <point x="755" y="929" type="line"/>
    </contour>
    <contour>
      <point x="213" y="110" type="line"/>
      <point x="455" y="-351" type="line"/>
      <point x="608" y="-265" type="line"/>
      <point x="325" y="120" type="line"/>
    </contour>
    <contour>
      <point x="756" y="1167" type="move" name="top"/>
    </contour>
    <contour>
      <point x="708" y="-109" type="move" name="bottom"/>
    </contour>
    <contour>
      <point x="563" y="1167" type="move" name="topcandra"/>
    </contour>
  </outline>
</glyph>
<glyph name="ja-deva" format="1">
  <advance width="1421"/>
  <unicode hex="091C"/>
  <outline>
    <contour>
      <point x="50" y="878" type="line"/>
      <point x="72" y="488"/>
      <point x="193" y="200"/>
      <point x="527" y="200" type="curve" smooth="yes"/>
      <point x="730" y="200"/>
      <point x="865" y="317"/>
      <point x="865" y="499" type="curve" smooth="yes"/>
      <point x="865" y="644"/>
      <point x="796" y="721"/>
      <point x="655" y="795" type="curve"/>
      <point x="569" y="905" type="line"/>
      <point x="508" y="774" type="line"/>
      <point x="627" y="718"/>
      <point x="680" y="641"/>
      <point x="680" y="540" type="curve" smooth="yes"/>
      <point x="680" y="441"/>
      <point x="624" y="379"/>
      <point x="515" y="377" type="curve" smooth="yes"/>
      <point x="266" y="374"/>
      <point x="224" y="708"/>
      <point x="201" y="898" type="curve"/>
    </contour>
    <contour>
      <point x="569" y="905" type="line"/>
      <point x="640" y="738" type="line"/>
      <point x="1165" y="738" type="line"/>
      <point x="1165" y="905" type="line"/>
    </contour>
    <contour>
      <point x="1047" y="1197" type="line"/>
      <point x="1047" y="0" type="line"/>
      <point x="1236" y="0" type="line"/>
      <point x="1236" y="1197" type="line"/>
    </contour>
    <contour>
      <point x="-18" y="1277" type="line"/>
      <point x="-18" y="1114" type="line"/>
      <point x="1438" y="1114" type="line"/>
      <point x="1438" y="1277" type="line"/>
    </contour>
    <contour>
      <point x="290" y="80" type="move" name="nukta"/>
    </contour>
    <contour>
      <point x="1144" y="1167" type="move" name="top"/>
    </contour>
    <contour>
      <point x="760" y="1167" type="move" name="topcandra"/>
    </contour>
    <contour>
      <point x="1146" y="27" type="move" name="bottom"/>
    </contour>
  </outline>
</glyph>
<glyph name="ttha-deva" format="1">
  <advance width="1176"/>
  <unicode hex="0920"/>
  <outline>
    <contour>
      <point x="-18" y="1277" type="line"/>
      <point x="-18" y="1114" type="line"/>
      <point x="1193" y="1114" type="line"/>
      <point x="1193" y="1277" type="line"/>
    </contour>
    <contour>
      <point x="925" y="14"/>
      <point x="1099" y="157"/>
      <point x="1099" y="455" type="curve" smooth="yes"/>
      <point x="1099" y="668"/>
      <point x="1010" y="833"/>
      <point x="800" y="886" type="curve" smooth="yes"/>
      <point x="730" y="901"/>
      <point x="669" y="906"/>
      <point x="585" y="906" type="curve" smooth="yes"/>
      <point x="276" y="906"/>
      <point x="76" y="800"/>
      <point x="76" y="482" type="curve" smooth="yes"/>
      <point x="76" y="176"/>
      <point x="256" y="14"/>
      <point x="598" y="14" type="curve" smooth="yes"/>
    </contour>
    <contour>
      <point x="359" y="183"/>
      <point x="274" y="267"/>
      <point x="274" y="455" type="curve" smooth="yes"/>
      <point x="274" y="667"/>
      <point x="379" y="737"/>
      <point x="589" y="737" type="curve" smooth="yes"/>
      <point x="682" y="737"/>
      <point x="760" y="729"/>
      <point x="814" y="693" type="curve" smooth="yes"/>
      <point x="876" y="654"/>
      <point x="904" y="580"/>
      <point x="902" y="459" type="curve" smooth="yes"/>
      <point x="898" y="268"/>
      <point x="801" y="183"/>
      <point x="587" y="183" type="curve" smooth="yes"/>
    </contour>
    <contour>
      <point x="863" y="853" type="line"/>
      <point x="863" y="1162" type="line"/>
      <point x="676" y="1162" type="line"/>
      <point x="676" y="882" type="line"/>
    </contour>
    <contour>
      <point x="12" y="72" type="move" name="nukta"/>
    </contour>
    <contour>
      <point x="772" y="1167" type="move" name="top"/>
    </contour>
    <contour>
      <point x="601" y="1167" type="move" name="topcandra"/>
    </contour>
    <contour>
      <point x="615" y="48" type="move" name="bottom"/>
    </contour>
  </outline>
</glyph>
<glyph name="da-deva" format="1">
  <advance width="1031"/>
  <unicode hex="0926"/>
  <outline>
    <contour>
      <point x="626" y="1145" type="line"/>
      <point x="626" y="846" type="line"/>
      <point x="746" y="874" type="line"/>
      <point x="665" y="898"/>
      <point x="599" y="906"/>
      <point x="546" y="906" type="curve" smooth="yes"/>
      <point x="203" y="906"/>
      <point x="69" y="746"/>
      <point x="69" y="503" type="curve" smooth="yes"/>
      <point x="69" y="251"/>
      <point x="224" y="65"/>
      <point x="545" y="65" type="curve" smooth="yes"/>
      <point x="660" y="65"/>
      <point x="764" y="89"/>
      <point x="847" y="144" type="curve" smooth="yes"/>
      <point x="907" y="184"/>
      <point x="945" y="262"/>
      <point x="945" y="324" type="curve" smooth="yes"/>
      <point x="945" y="424"/>
      <point x="852" y="495"/>
      <point x="740" y="525" type="curve"/>
      <point x="632" y="444" type="line"/>
      <point x="733" y="233" type="line"/>
      <point x="796" y="315" type="line"/>
      <point x="699" y="251"/>
      <point x="643" y="227"/>
      <point x="537" y="227" type="curve" smooth="yes"/>
      <point x="363" y="227"/>
      <point x="266" y="292"/>
      <point x="266" y="480" type="curve" smooth="yes"/>
      <point x="266" y="688"/>
      <point x="377" y="738"/>
      <point x="592" y="738" type="curve" smooth="yes"/>
      <point x="697" y="738"/>
      <point x="762" y="733"/>
      <point x="815" y="730" type="curve"/>
      <point x="815" y="1145" type="line"/>
    </contour>
    <contour>
      <point x="742" y="215" type="line"/>
      <point x="927" y="-155" type="line"/>
      <point x="1076" y="-66" type="line"/>
      <point x="854" y="266" type="line"/>
    </contour>
    <contour>
      <point x="-18" y="1277" type="line"/>
      <point x="-18" y="1114" type="line"/>
      <point x="1048" y="1114" type="line"/>
      <point x="1048" y="1277" type="line"/>
    </contour>
    <contour>
      <point x="33" y="72" type="move" name="nukta"/>
    </contour>
    <contour>
      <point x="721" y="1167" type="move" name="top"/>
    </contour>
    <contour>
      <point x="529" y="1167" type="move" name="topcandra"/>
    </contour>
    <contour>
      <point x="560" y="13" type="move" name="bottom"/>
    </contour>
  </outline>
</glyph>
<glyph name="pa-deva" format="1">
  <advance width="1174"/>
  <unicode hex="092A"/>
  <outline>
    <contour>
      <point x="154" y="1145" type="line"/>
      <point x="154" y="678" type="line" smooth="yes"/>
      <point x="154" y="425"/>
      <point x="276" y="293"/>
      <point x="508" y="293" type="curve" smooth="yes"/>
      <point x="654" y="293"/>
      <point x="798" y="367"/>
      <point x="879" y="491" type="curve"/>
      <point x="841" y="666" type="line"/>
      <point x="761" y="536"/>
      <point x="648" y="465"/>
      <point x="519" y="464" type="curve" smooth="yes"/>
      <point x="384" y="463"/>
      <point x="346" y="527"/>
      <point x="346" y="667" type="curve" smooth="yes"/>
      <point x="346" y="1145" type="line"/>
    </contour>
    <contour>
      <point x="799" y="1197" type="line"/>
      <point x="799" y="0" type="line"/>
      <point x="989" y="0" type="line"/>
      <point x="989" y="1197" type="line"/>
    </contour>
    <contour>
      <point x="-19" y="1277" type="line"/>
      <point x="-19" y="1114" type="line"/>
      <point x="1191" y="1114" type="line"/>
      <point x="1191" y="1277" type="line"/>
    </contour>
    <contour>
      <point x="279" y="101" type="move" name="nukta"/>
    </contour>
    <contour>
      <point x="894" y="1167" type="move" name="top"/>
    </contour>
    <contour>
      <point x="585" y="1167" type="move" name="topcandra"/>
    </contour>
    <contour>
      <point x="894" y="27" type="move" name="bottom"/>
    </contour>
  </outline>
</glyph>
<glyph name="la-deva" format="1">
  <advance width="1413"/>
  <unicode hex="0932"/>
  <outline>
    <contour>
      <point x="174" y="935"/>
      <point x="62" y="814"/>
      <point x="62" y="600" type="curve" smooth="yes"/>
      <point x="62" y="339"/>
      <point x="214" y="119"/>
      <point x="343" y="-29" type="curve"/>
      <point x="478" y="85" type="line"/>
      <point x="332" y="265"/>
      <point x="248" y="415"/>
      <point x="248" y="572" type="curve" smooth="yes"/>
      <point x="248" y="714"/>
      <point x="321" y="758"/>
      <point x="406" y="758" type="curve" smooth="yes"/>
      <point x="515" y="758"/>
      <point x="587" y="672"/>
      <point x="658" y="550" type="curve"/>
      <point x="682" y="675" type="line"/>
      <point x="609" y="860"/>
      <point x="507" y="935"/>
      <point x="363" y="935" type="curve" smooth="yes"/>
    </contour>
    <contour>
      <point x="677" y="932"/>
      <point x="557" y="780"/>
      <point x="557" y="574" type="curve" smooth="yes"/>
      <point x="557" y="532"/>
      <point x="561" y="491"/>
      <point x="575" y="453" type="curve"/>
      <point x="740" y="471" type="line"/>
      <point x="736" y="501"/>
      <point x="733" y="529"/>
      <point x="733" y="556" type="curve" smooth="yes"/>
      <point x="733" y="677"/>
      <point x="790" y="761"/>
      <point x="895" y="761" type="curve" smooth="yes"/>
      <point x="983" y="761"/>
      <point x="1043" y="713"/>
      <point x="1071" y="626" type="curve"/>
      <point x="1087" y="742" type="line"/>
      <point x="1065" y="868"/>
      <point x="968" y="932"/>
      <point x="861" y="932" type="curve" smooth="yes"/>
    </contour>
    <contour>
      <point x="1038" y="1195" type="line"/>
      <point x="1038" y="1" type="line"/>
      <point x="1227" y="1" type="line"/>
      <point x="1227" y="1195" type="line"/>
    </contour>
    <contour>
      <point x="-18" y="1277" type="line"/>
      <point x="-18" y="1114" type="line"/>
      <point x="1430" y="1114" type="line"/>
      <point x="1430" y="1277" type="line"/>
    </contour>
    <contour>
      <point x="23" y="72" type="move" name="nukta"/>
    </contour>
    <contour>
      <point x="1133" y="1167" type="move" name="top"/>
    </contour>
    <contour>
      <point x="683" y="1167" type="move" name="topcandra"/>
    </contour>
    <contour>
      <point x="1133" y="27" type="move" name="bottom"/>
    </contour>
  </outline>
</glyph>
<glyph name="uuMatra-deva" format="1">
  <advance width="540"/>
  <unicode hex="0942"/>
  <outline>
    <contour>
      <point x="429" y="-325" type="line"/>
      <point x="366" y="-350"/>
      <point x="311" y="-364"/>
      <point x="255" y="-364" type="curve" smooth="yes"/>
      <point x="179" y="-364"/>
      <point x="133" y="-336"/>
      <point x="133" y="-245" type="curve" smooth="yes"/>
      <point x="133" y="-171"/>
      <point x="182" y="-123"/>
      <point x="290" y="-123" type="curve" smooth="yes"/>
      <point x="397" y="-123"/>
      <point x="512" y="-165"/>
      <point x="686" y="-357" type="curve"/>
      <point x="780" y="-268" type="line"/>
      <point x="584" y="-21"/>
      <point x="429" y="41"/>
      <point x="288" y="41" type="curve" smooth="yes"/>
      <point x="77" y="41"/>
      <point x="-41" y="-82"/>
      <point x="-41" y="-245" type="curve" smooth="yes"/>
      <point x="-41" y="-396"/>
      <point x="61" y="-520"/>
      <point x="256" y="-520" type="curve" smooth="yes"/>
      <point x="318" y="-520"/>
      <point x="403" y="-506"/>
      <point x="479" y="-468" type="curve"/>
    </contour>
    <contour>
      <point x="270" y="27" type="move" name="_bottom"/>
    </contour>
  </outline>
</glyph>
<glyph name="lVocalicMatra-deva" format="1">
  <advance width="540"/>
  <unicode hex="0962"/>
  <outline>
    <contour>
      <point x="185" y="0" type="move"/>
      <point x="374" y="0" type="line"/>
    </contour>
    <contour>
      <point x="703" y="-669"/>
      <point x="641" y="-698"/>
      <point x="582" y="-698" type="curve" smooth="yes"/>
      <point x="526" y="-698"/>
      <point x="492" y="-667"/>
      <point x="492" y="-620" type="curve" smooth="yes"/>
      <point x="492" y="-558"/>
      <point x="552" y="-514"/>
      <point x="653" y="-474" type="curve"/>
      <point x="549" y="-388" type="line"/>
      <point x="402" y="-441"/>
      <point x="340" y="-528"/>
      <point x="340" y="-618" type="curve" smooth="yes"/>
      <point x="340" y="-746"/>
      <point x="445" y="-829"/>
      <point x="570" y="-829" type="curve" smooth="yes"/>
      <point x="661" y="-829"/>
      <point x="745" y="-796"/>
      <point x="810" y="-748" type="curve"/>
      <point x="758" y="-635" type="line"/>
    </contour>
    <contour>
      <point x="69" y="-417" type="line"/>
      <point x="-9" y="-319"/>
      <point x="-50" y="-254"/>
      <point x="-50" y="-163" type="curve" smooth="yes"/>
      <point x="-50" y="-63"/>
      <point x="8" y="-27"/>
      <point x="74" y="-27" type="curve" smooth="yes"/>
      <point x="161" y="-27"/>
      <point x="224" y="-102"/>
      <point x="287" y="-209" type="curve"/>
      <point x="306" y="-94" type="line"/>
      <point x="245" y="61"/>
      <point x="158" y="125"/>
      <point x="38" y="125" type="curve" smooth="yes"/>
      <point x="-121" y="125"/>
      <point x="-215" y="23"/>
      <point x="-215" y="-154" type="curve" smooth="yes"/>
      <point x="-215" y="-292"/>
      <point x="-150" y="-398"/>
      <point x="-65" y="-503" type="curve"/>
      <point x="-60" y="-503" type="line"/>
    </contour>
    <contour>
      <point x="653" y="-474" type="line"/>
      <point x="717" y="-409"/>
      <point x="780" y="-292"/>
      <point x="780" y="-168" type="curve" smooth="yes"/>
      <point x="780" y="4"/>
      <point x="683" y="127"/>
      <point x="497" y="127" type="curve" smooth="yes"/>
      <point x="316" y="127"/>
      <point x="215" y="-4"/>
      <point x="215" y="-176" type="curve" smooth="yes"/>
      <point x="215" y="-213"/>
      <point x="219" y="-247"/>
      <point x="230" y="-281" type="curve"/>
      <point x="375" y="-265" type="line"/>
      <point x="371" y="-238"/>
      <point x="368" y="-213"/>
      <point x="368" y="-191" type="curve" smooth="yes"/>
      <point x="368" y="-93"/>
      <point x="415" y="-26"/>
      <point x="503" y="-26" type="curve" smooth="yes"/>
      <point x="585" y="-26"/>
      <point x="622" y="-93"/>
      <point x="622" y="-180" type="curve" smooth="yes"/>
      <point x="622" y="-256"/>
      <point x="580" y="-343"/>
      <point x="529" y="-402" type="curve"/>
      <point x="530" y="-408" type="line"/>
    </contour>
    <contour>
      <point x="280" y="27" type="move" name="_bottom"/>
    </contour>
  </outline>
</glyph>
<glyph name="jja-deva" format="1">
  <advance width="1421"/>
  <unicode hex="097C"/>
  <outline>
    <contour>
      <point x="139" y="68" type="line"/>
      <point x="139" y="-85" type="line"/>
      <point x="1236" y="-85" type="line"/>
      <point x="1236" y="68" type="line"/>
    </contour>
    <component base="ja-deva"/>
  </outline>
</glyph>
<glyph name="rightFacingSvasti" format="1">
  <advance width="1622"/>
  <unicode hex="0FD5"/>
  <outline>
    <contour>
      <point x="717" y="1229" type="line"/>
      <point x="717" y="1" type="line"/>
      <point x="906" y="1" type="line"/>
      <point x="906" y="1229" type="line"/>
    </contour>
    <contour>
      <point x="167" y="163" type="line"/>
      <point x="167" y="1" type="line"/>
      <point x="906" y="1" type="line"/>
      <point x="906" y="163" type="line"/>
    </contour>
    <contour>
      <point x="167" y="1277" type="line"/>
      <point x="167" y="573" type="line"/>
      <point x="356" y="573" type="line"/>
      <point x="356" y="1277" type="line"/>
    </contour>
    <contour>
      <point x="167" y="728" type="line"/>
      <point x="167" y="565" type="line"/>
      <point x="1456" y="565" type="line"/>
      <point x="1456" y="728" type="line"/>
    </contour>
    <contour>
      <point x="1267" y="728" type="line"/>
      <point x="1267" y="1" type="line"/>
      <point x="1456" y="1" type="line"/>
      <point x="1456" y="728" type="line"/>
    </contour>
    <contour>
      <point x="717" y="1277" type="line"/>
      <point x="717" y="1114" type="line"/>
      <point x="1456" y="1114" type="line"/>
      <point x="1456" y="1277" type="line"/>
    </contour>
  </outline>
</glyph>
<glyph name="t.sups" format="1">
  <advance width="485"/>
  <unicode hex="1D57"/>
  <outline>
    <contour>
      <point x="128" y="755" type="line" name="hr01"/>
      <point x="128" y="613"/>
      <point x="182" y="516"/>
      <point x="333" y="516" type="curve" smooth="yes"/>
      <point x="384" y="516"/>
      <point x="433" y="528"/>
      <point x="470" y="541" type="curve"/>
      <point x="442" y="645" type="line"/>
      <point x="418" y="635"/>
      <point x="394" y="629"/>
      <point x="368" y="629" type="curve" smooth="yes"/>
      <point x="303" y="629"/>
      <point x="271" y="673"/>
      <point x="271" y="753" type="curve" smooth="yes"/>
      <point x="271" y="1081" type="line"/>
      <point x="447" y="1081" type="line"/>
      <point x="447" y="1195" type="line"/>
      <point x="271" y="1195" type="line"/>
      <point x="271" y="1377" type="line"/>
      <point x="152" y="1377" type="line"/>
      <point x="134" y="1195" type="line"/>
      <point x="32" y="1189" type="line" name="hr02"/>
      <point x="32" y="1081" type="line" name="hr03"/>
      <point x="128" y="1081" type="line"/>
    </contour>
  </outline>
</glyph>
<glyph name="figuredash" format="1">
  <advance width="1030"/>
  <unicode hex="2012"/>
  <outline>
    <contour>
      <point x="85" y="451" type="line" name="hr00"/>
      <point x="946" y="451" type="line"/>
      <point x="946" y="581" type="line"/>
      <point x="85" y="581" type="line"/>
    </contour>
  </outline>
</glyph>
<glyph name="eight.sups" format="1">
  <advance width="755"/>
  <unicode hex="2078"/>
  <outline>
    <contour>
      <point x="227" y="1115" type="curve" smooth="yes" name="hr01"/>
      <point x="227" y="1176"/>
      <point x="263" y="1231"/>
      <point x="330" y="1272" type="curve"/>
      <point x="433" y="1228"/>
      <point x="525" y="1204"/>
      <point x="525" y="1112" type="curve" smooth="yes"/>
      <point x="525" y="1040"/>
      <point x="458" y="982"/>
      <point x="375" y="982" type="curve" smooth="yes"/>
      <point x="287" y="982"/>
      <point x="227" y="1045"/>
    </contour>
    <contour>
      <point x="420" y="1364" type="curve" name="hr02"/>
      <point x="329" y="1394"/>
      <point x="256" y="1432"/>
      <point x="256" y="1509" type="curve" smooth="yes"/>
      <point x="256" y="1571"/>
      <point x="309" y="1615"/>
      <point x="375" y="1615" type="curve" smooth="yes"/>
      <point x="443" y="1615"/>
      <point x="499" y="1572"/>
      <point x="499" y="1506" type="curve" smooth="yes"/>
      <point x="499" y="1456"/>
      <point x="474" y="1406"/>
    </contour>
    <contour>
      <point x="89" y="1101" type="curve" smooth="yes" name="hr03"/>
      <point x="89" y="979"/>
      <point x="205" y="877"/>
      <point x="375" y="877" type="curve" smooth="yes"/>
      <point x="540" y="877"/>
      <point x="661" y="977"/>
      <point x="661" y="1106" type="curve" smooth="yes"/>
      <point x="661" y="1203"/>
      <point x="603" y="1268"/>
      <point x="514" y="1314" type="curve"/>
      <point x="514" y="1322" type="line"/>
      <point x="570" y="1359"/>
      <point x="636" y="1423"/>
      <point x="636" y="1512" type="curve" smooth="yes" name="hr04"/>
      <point x="636" y="1642"/>
      <point x="521" y="1724"/>
      <point x="375" y="1724" type="curve" smooth="yes"/>
      <point x="235" y="1724"/>
      <point x="122" y="1640"/>
      <point x="122" y="1512" type="curve" smooth="yes"/>
      <point x="122" y="1429"/>
      <point x="171" y="1375"/>
      <point x="241" y="1329" type="curve"/>
      <point x="241" y="1321" type="line"/>
      <point x="163" y="1277"/>
      <point x="89" y="1199"/>
    </contour>
  </outline>
</glyph>
<glyph name="parenright.subs" format="1">
  <advance width="497"/>
  <unicode hex="208E"/>
  <outline>
    <contour>
      <point x="79" y="-559" type="curve" name="hr00"/>
      <point x="187" y="-608" type="line"/>
      <point x="301" y="-439"/>
      <point x="364" y="-278"/>
      <point x="364" y="-44" type="curve" smooth="yes"/>
      <point x="364" y="189"/>
      <point x="301" y="350"/>
      <point x="187" y="520" type="curve"/>
      <point x="79" y="469" type="line"/>
      <point x="180" y="309"/>
      <point x="222" y="139"/>
      <point x="222" y="-44" type="curve" smooth="yes"/>
      <point x="222" y="-226"/>
      <point x="180" y="-396"/>
    </contour>
  </outline>
</glyph>
<glyph name="uni20B2" format="1">
  <advance width="1030"/>
  <unicode hex="20B2"/>
  <outline>
    <contour>
      <point x="586" y="690" type="line" name="hr01"/>
      <point x="586" y="529" type="line"/>
      <point x="780" y="529" type="line"/>
      <point x="780" y="200" type="line"/>
      <point x="747" y="164"/>
      <point x="679" y="134"/>
      <point x="609" y="134" type="curve" smooth="yes"/>
      <point x="407" y="134"/>
      <point x="288" y="331"/>
      <point x="288" y="656" type="curve" smooth="yes"/>
      <point x="288" y="976"/>
      <point x="406" y="1177"/>
      <point x="619" y="1177" type="curve" smooth="yes" name="hr02"/>
      <point x="711" y="1177"/>
      <point x="776" y="1130"/>
      <point x="838" y="1059" type="curve"/>
      <point x="950" y="1166" type="line"/>
      <point x="878" y="1250"/>
      <point x="780" y="1316"/>
      <point x="667" y="1327" type="curve"/>
      <point x="667" y="1531" type="line"/>
      <point x="530" y="1531" type="line"/>
      <point x="530" y="1323" type="line" name="hr03"/>
      <point x="263" y="1276"/>
      <point x="93" y="1029"/>
      <point x="93" y="650" type="curve" smooth="yes"/>
      <point x="93" y="258"/>
      <point x="271" y="15"/>
      <point x="530" y="-19" type="curve"/>
      <point x="530" y="-225" type="line"/>
      <point x="667" y="-225" type="line"/>
      <point x="667" y="-19" type="line"/>
      <point x="777" y="-6"/>
      <point x="876" y="45"/>
      <point x="955" y="125" type="curve"/>
      <point x="955" y="690" type="line"/>
    </contour>
  </outline>
</glyph>
<glyph name="uni2120" format="1">
  <advance width="1322"/>
  <unicode hex="2120"/>
  <outline>
    <contour>
      <point x="287" y="724" type="curve" smooth="yes" name="hr01"/>
      <point x="427" y="724"/>
      <point x="516" y="816"/>
      <point x="516" y="914" type="curve" smooth="yes"/>
      <point x="516" y="1010"/>
      <point x="467" y="1060"/>
      <point x="386" y="1095" type="curve"/>
      <point x="293" y="1140" type="line"/>
      <point x="240" y="1163"/>
      <point x="209" y="1184"/>
      <point x="209" y="1223" type="curve" smooth="yes" name="hr02"/>
      <point x="209" y="1261"/>
      <point x="238" y="1295"/>
      <point x="298" y="1295" type="curve" smooth="yes"/>
      <point x="345" y="1295"/>
      <point x="396" y="1266"/>
      <point x="439" y="1233" type="curve"/>
      <point x="506" y="1322" type="line" name="hr03"/>
      <point x="456" y="1365"/>
      <point x="383" y="1400"/>
      <point x="305" y="1400" type="curve" smooth="yes" name="hr04"/>
      <point x="174" y="1400"/>
      <point x="85" y="1323"/>
      <point x="85" y="1216" type="curve" smooth="yes"/>
      <point x="85" y="1118"/>
      <point x="146" y="1068"/>
      <point x="208" y="1037" type="curve" smooth="yes"/>
      <point x="303" y="991" type="line"/>
      <point x="361" y="964"/>
      <point x="389" y="951"/>
      <point x="389" y="902" type="curve" smooth="yes"/>
      <point x="389" y="857"/>
      <point x="355" y="829"/>
      <point x="296" y="829" type="curve" smooth="yes"/>
      <point x="230" y="829"/>
      <point x="174" y="860"/>
      <point x="126" y="907" type="curve"/>
      <point x="52" y="822" type="line"/>
      <point x="116" y="760"/>
      <point x="197" y="724"/>
    </contour>
    <contour>
      <point x="677" y="748" type="line"/>
      <point x="809" y="748" type="line"/>
      <point x="809" y="1013" type="line"/>
      <point x="793" y="1232" type="line" name="hr06"/>
      <point x="802" y="1232" type="line"/>
      <point x="942" y="846" type="line"/>
      <point x="1041" y="846" type="line"/>
      <point x="1181" y="1232" type="line"/>
      <point x="1189" y="1232" type="line"/>
      <point x="1174" y="1013" type="line"/>
      <point x="1174" y="748" type="line"/>
      <point x="1304" y="748" type="line"/>
      <point x="1304" y="1384" type="line"/>
      <point x="1139" y="1384" type="line"/>
      <point x="1049" y="1163" type="line"/>
      <point x="996" y="1006" type="line"/>
      <point x="988" y="1006" type="line"/>
      <point x="936" y="1163" type="line"/>
      <point x="844" y="1384" type="line"/>
      <point x="677" y="1384" type="line"/>
    </contour>
  </outline>
</glyph>
<glyph name="estimated" format="1">
  <advance width="1638"/>
  <unicode hex="212E"/>
  <outline>
    <contour>
      <point x="377" y="221" type="curve" name="hr00"/>
      <point x="369" y="233"/>
      <point x="360" y="246"/>
      <point x="360" y="262" type="curve" smooth="yes"/>
      <point x="360" y="639" type="line"/>
      <point x="360" y="643"/>
      <point x="365" y="647"/>
      <point x="369" y="647" type="curve" smooth="yes"/>
      <point x="1544" y="647" type="line"/>
      <point x="1544" y="651"/>
      <point x="1544" y="659"/>
      <point x="1544" y="664" type="curve" smooth="yes"/>
      <point x="1544" y="1045"/>
      <point x="1221" y="1352"/>
      <point x="819" y="1352" type="curve" smooth="yes"/>
      <point x="418" y="1352"/>
      <point x="94" y="1045"/>
      <point x="94" y="664" type="curve" smooth="yes"/>
      <point x="94" y="283"/>
      <point x="418" y="-25"/>
      <point x="819" y="-25" type="curve" smooth="yes"/>
      <point x="1053" y="-25"/>
      <point x="1262" y="82"/>
      <point x="1397" y="246" type="curve"/>
      <point x="1290" y="246" type="line"/>
      <point x="1176" y="106"/>
      <point x="1008" y="16"/>
      <point x="823" y="16" type="curve" smooth="yes"/>
      <point x="647" y="16"/>
      <point x="487" y="94"/>
    </contour>
    <contour>
      <point x="369" y="684" type="line"/>
      <point x="365" y="684"/>
      <point x="360" y="688"/>
      <point x="360" y="696" type="curve" smooth="yes"/>
      <point x="360" y="1065" type="line"/>
      <point x="360" y="1081"/>
      <point x="369" y="1098"/>
      <point x="377" y="1110" type="curve"/>
      <point x="492" y="1233"/>
      <point x="647" y="1311"/>
      <point x="823" y="1311" type="curve" smooth="yes"/>
      <point x="991" y="1311"/>
      <point x="1147" y="1237"/>
      <point x="1262" y="1118" type="curve" smooth="yes"/>
      <point x="1274" y="1106"/>
      <point x="1282" y="1090"/>
      <point x="1282" y="1073" type="curve" smooth="yes"/>
      <point x="1282" y="696" type="line"/>
      <point x="1282" y="688"/>
      <point x="1278" y="684"/>
      <point x="1270" y="684" type="curve" smooth="yes"/>
    </contour>
  </outline>
</glyph>
<glyph name="triagup" format="1">
  <advance width="1177"/>
  <unicode hex="25B2"/>
  <outline>
    <contour>
      <point x="46" y="72" type="line"/>
      <point x="1131" y="72" type="line"/>
      <point x="1131" y="76" type="line"/>
      <point x="594" y="1098" type="line"/>
      <point x="586" y="1098" type="line"/>
      <point x="46" y="76" type="line"/>
    </contour>
  </outline>
</glyph>
<glyph name="triagdn" format="1">
  <advance width="1177"/>
  <unicode hex="25BC"/>
  <outline>
    <contour>
      <point x="586" y="57" type="line"/>
      <point x="594" y="57" type="line"/>
      <point x="1131" y="1078" type="line"/>
      <point x="1131" y="1082" type="line"/>
      <point x="46" y="1082" type="line"/>
      <point x="46" y="1078" type="line"/>
    </contour>
  </outline>
</glyph>
<glyph name="whitedownpointingtriangle" format="1">
  <advance width="1177"/>
  <unicode hex="25BD"/>
  <outline>
    <contour>
      <point x="282" y="948" type="line"/>
      <point x="899" y="948" type="line"/>
      <point x="590" y="340" type="line"/>
    </contour>
    <contour>
      <point x="46" y="1082" type="line"/>
      <point x="46" y="1078" type="line"/>
      <point x="586" y="55" type="line"/>
      <point x="594" y="55" type="line"/>
      <point x="1131" y="1078" type="line"/>
      <point x="1131" y="1082" type="line"/>
    </contour>
  </outline>
</glyph>
<glyph name="uni25C9" format="1">
  <advance width="924"/>
  <unicode hex="25C9"/>
  <outline>
    <contour>
      <point x="463" y="411" type="curve" smooth="yes"/>
      <point x="528" y="411"/>
      <point x="584" y="464"/>
      <point x="584" y="539" type="curve" smooth="yes"/>
      <point x="584" y="613"/>
      <point x="528" y="665"/>
      <point x="463" y="665" type="curve" smooth="yes"/>
      <point x="396" y="665"/>
      <point x="342" y="613"/>
      <point x="342" y="539" type="curve" smooth="yes"/>
      <point x="342" y="464"/>
      <point x="396" y="411"/>
    </contour>
    <contour>
      <point x="463" y="154" type="curve" smooth="yes"/>
      <point x="670" y="154"/>
      <point x="840" y="304"/>
      <point x="840" y="539" type="curve" smooth="yes"/>
      <point x="840" y="772"/>
      <point x="670" y="923"/>
      <point x="463" y="923" type="curve" smooth="yes"/>
      <point x="255" y="923"/>
      <point x="84" y="772"/>
      <point x="84" y="539" type="curve" smooth="yes"/>
      <point x="84" y="304"/>
      <point x="255" y="154"/>
    </contour>
    <contour>
      <point x="463" y="263" type="curve" smooth="yes"/>
      <point x="324" y="263"/>
      <point x="202" y="368"/>
      <point x="202" y="539" type="curve" smooth="yes"/>
      <point x="202" y="712"/>
      <point x="324" y="814"/>
      <point x="463" y="814" type="curve" smooth="yes"/>
      <point x="602" y="814"/>
      <point x="725" y="712"/>
      <point x="725" y="539" type="curve" smooth="yes"/>
      <point x="725" y="368"/>
      <point x="602" y="263"/>
    </contour>
  </outline>
</glyph>
<glyph name="Iacute.a" format="1">
  <advance width="724"/>
  <outline>
    <contour>
      <point x="96" y="0" type="line"/>
      <point x="624" y="0" type="line"/>
      <point x="624" y="165" type="line"/>
      <point x="458" y="165" type="line"/>
      <point x="458" y="1178" type="line"/>
      <point x="624" y="1178" type="line"/>
      <point x="624" y="1342" type="line"/>
      <point x="96" y="1342" type="line"/>
      <point x="96" y="1178" type="line"/>
      <point x="264" y="1178" type="line"/>
      <point x="264" y="165" type="line"/>
      <point x="96" y="165" type="line"/>
    </contour>
    <contour>
      <point x="642" y="1676" type="line"/>
      <point x="426" y="1676" type="line"/>
      <point x="249" y="1445" type="line"/>
      <point x="408" y="1445" type="line"/>
    </contour>
  </outline>
</glyph>
<glyph name="adieresis.a" format="1">
  <advance width="1144"/>
  <outline>
    <contour>
      <point x="292" y="501" type="curve" smooth="yes"/>
      <point x="292" y="721"/>
      <point x="411" y="864"/>
      <point x="560" y="864" type="curve" smooth="yes"/>
      <point x="637" y="864"/>
      <point x="710" y="837"/>
      <point x="788" y="766" type="curve"/>
      <point x="788" y="265" type="line"/>
      <point x="712" y="177"/>
      <point x="637" y="136"/>
      <point x="550" y="136" type="curve" smooth="yes"/>
      <point x="387" y="136"/>
      <point x="292" y="269"/>
    </contour>
    <contour>
      <point x="93" y="498" type="curve" smooth="yes"/>
      <point x="93" y="166"/>
      <point x="255" y="-25"/>
      <point x="506" y="-25" type="curve" smooth="yes"/>
      <point x="619" y="-25"/>
      <point x="724" y="39"/>
      <point x="801" y="114" type="curve"/>
      <point x="807" y="114" type="line"/>
      <point x="823" y="0" type="line"/>
      <point x="982" y="0" type="line"/>
      <point x="982" y="999" type="line"/>
      <point x="826" y="999" type="line"/>
      <point x="810" y="902" type="line"/>
      <point x="805" y="902" type="line"/>
      <point x="717" y="983"/>
      <point x="635" y="1024"/>
      <point x="526" y="1024" type="curve" smooth="yes"/>
      <point x="302" y="1024"/>
      <point x="93" y="823"/>
    </contour>
    <contour>
      <point x="403" y="1198" type="curve" smooth="yes"/>
      <point x="467" y="1198"/>
      <point x="511" y="1244"/>
      <point x="511" y="1306" type="curve" smooth="yes"/>
      <point x="511" y="1368"/>
      <point x="467" y="1414"/>
      <point x="403" y="1414" type="curve" smooth="yes"/>
      <point x="341" y="1414"/>
      <point x="295" y="1368"/>
      <point x="295" y="1306" type="curve" smooth="yes"/>
      <point x="295" y="1244"/>
      <point x="341" y="1198"/>
    </contour>
    <contour>
      <point x="767" y="1198" type="curve" smooth="yes"/>
      <point x="829" y="1198"/>
      <point x="875" y="1244"/>
      <point x="875" y="1306" type="curve" smooth="yes"/>
      <point x="875" y="1368"/>
      <point x="829" y="1414"/>
      <point x="767" y="1414" type="curve" smooth="yes"/>
      <point x="704" y="1414"/>
      <point x="658" y="1368"/>
      <point x="658" y="1306" type="curve" smooth="yes"/>
      <point x="658" y="1244"/>
      <point x="704" y="1198"/>
    </contour>
  </outline>
</glyph>
<glyph name="d_bha-deva" format="1">
  <advance width="1388"/>
  <outline>
    <contour>
      <point x="-28" y="255"/>
      <point x="-64" y="225"/>
      <point x="-96" y="187" type="curve"/>
      <point x="-4" y="70" type="line"/>
      <point x="21" y="93"/>
      <point x="47" y="115"/>
      <point x="73" y="131" type="curve" smooth="yes"/>
      <point x="125" y="165"/>
      <point x="154" y="159"/>
      <point x="196" y="84" type="curve" smooth="yes"/>
      <point x="387" y="-244" type="line"/>
      <point x="528" y="-160" type="line"/>
      <point x="338" y="165" type="line" smooth="yes"/>
      <point x="273" y="277"/>
      <point x="190" y="383"/>
      <point x="16" y="281" type="curve" smooth="yes"/>
    </contour>
    <contour>
      <point x="371" y="-141" type="line"/>
      <point x="224" y="-251" type="line"/>
      <point x="289" y="-365" type="line"/>
      <point x="540" y="-441" type="line"/>
      <point x="633" y="-383"/>
      <point x="617" y="-320"/>
      <point x="581" y="-255" type="curve" smooth="yes"/>
      <point x="480" y="-76" type="line"/>
    </contour>
    <contour>
      <point x="345" y="-162" type="line"/>
      <point x="422" y="-317" type="line"/>
      <point x="1158" y="135" type="line"/>
      <point x="1066" y="232" type="line"/>
    </contour>
    <contour>
      <point x="981" y="1145" type="line"/>
      <point x="981" y="846" type="line"/>
      <point x="1101" y="874" type="line"/>
      <point x="1020" y="898"/>
      <point x="954" y="906"/>
      <point x="901" y="906" type="curve" smooth="yes"/>
      <point x="558" y="906"/>
      <point x="424" y="746"/>
      <point x="424" y="503" type="curve" smooth="yes"/>
      <point x="424" y="236"/>
      <point x="579" y="81"/>
      <point x="900" y="81" type="curve" smooth="yes"/>
      <point x="1015" y="81"/>
      <point x="1119" y="103"/>
      <point x="1202" y="159" type="curve" smooth="yes"/>
      <point x="1273" y="206"/>
      <point x="1300" y="262"/>
      <point x="1300" y="324" type="curve" smooth="yes"/>
      <point x="1300" y="424"/>
      <point x="1204" y="497"/>
      <point x="1093" y="527" type="curve"/>
      <point x="987" y="444" type="line"/>
      <point x="1088" y="237" type="line"/>
      <point x="1151" y="315" type="line"/>
      <point x="1054" y="251"/>
      <point x="998" y="227"/>
      <point x="892" y="227" type="curve" smooth="yes"/>
      <point x="718" y="227"/>
      <point x="621" y="292"/>
      <point x="621" y="480" type="curve" smooth="yes"/>
      <point x="621" y="688"/>
      <point x="732" y="738"/>
      <point x="947" y="738" type="curve" smooth="yes"/>
      <point x="1052" y="738"/>
      <point x="1117" y="733"/>
      <point x="1170" y="730" type="curve"/>
      <point x="1170" y="1145" type="line"/>
    </contour>
    <contour>
      <point x="1097" y="215" type="line"/>
      <point x="1284" y="-155" type="line"/>
      <point x="1433" y="-66" type="line"/>
      <point x="1209" y="266" type="line"/>
    </contour>
    <contour>
      <point x="-20" y="1277" type="line"/>
      <point x="-20" y="1114" type="line"/>
      <point x="1408" y="1114" type="line"/>
      <point x="1408" y="1277" type="line"/>
    </contour>
    <contour>
      <point x="1076" y="1167" type="move" name="top"/>
    </contour>
    <contour>
      <point x="1259" y="-73" type="move" name="bottom"/>
    </contour>
    <contour>
      <point x="760" y="1167" type="move" name="topcandra"/>
    </contour>
  </outline>
</glyph>
<glyph name="d_gha-deva" format="1">
  <advance width="1297"/>
  <outline>
    <contour>
      <point x="-18" y="1277" type="line"/>
      <point x="-18" y="1114" type="line"/>
      <point x="1329" y="1114" type="line"/>
      <point x="1329" y="1277" type="line"/>
    </contour>
    <contour>
      <point x="906" y="1145" type="line"/>
      <point x="906" y="846" type="line"/>
      <point x="1026" y="874" type="line"/>
      <point x="945" y="898"/>
      <point x="879" y="906"/>
      <point x="826" y="906" type="curve" smooth="yes"/>
      <point x="483" y="906"/>
      <point x="349" y="746"/>
      <point x="349" y="503" type="curve" smooth="yes"/>
      <point x="349" y="251"/>
      <point x="504" y="68"/>
      <point x="832" y="68" type="curve" smooth="yes"/>
      <point x="940" y="68"/>
      <point x="1028" y="89"/>
      <point x="1110" y="144" type="curve" smooth="yes"/>
      <point x="1171" y="184"/>
      <point x="1208" y="262"/>
      <point x="1208" y="324" type="curve" smooth="yes"/>
      <point x="1208" y="424"/>
      <point x="1113" y="497"/>
      <point x="1001" y="527" type="curve"/>
      <point x="895" y="444" type="line"/>
      <point x="996" y="233" type="line"/>
      <point x="1076" y="315" type="line"/>
      <point x="979" y="251"/>
      <point x="923" y="227"/>
      <point x="817" y="227" type="curve" smooth="yes"/>
      <point x="643" y="227"/>
      <point x="546" y="292"/>
      <point x="546" y="480" type="curve" smooth="yes"/>
      <point x="546" y="688"/>
      <point x="657" y="738"/>
      <point x="872" y="738" type="curve" smooth="yes"/>
      <point x="977" y="738"/>
      <point x="1042" y="733"/>
      <point x="1095" y="730" type="curve"/>
      <point x="1095" y="1145" type="line"/>
    </contour>
    <contour>
      <point x="1036" y="215" type="line"/>
      <point x="1223" y="-155" type="line"/>
      <point x="1357" y="-66" type="line"/>
      <point x="1134" y="266" type="line"/>
    </contour>
    <contour>
      <point x="210" y="494"/>
      <point x="60" y="374"/>
      <point x="59" y="190" type="curve" smooth="yes"/>
      <point x="58" y="42"/>
      <point x="164" y="-68"/>
      <point x="326" y="-81" type="curve" smooth="yes"/>
      <point x="371" y="-86"/>
      <point x="418" y="-82"/>
      <point x="471" y="-74" type="curve"/>
      <point x="525" y="34" type="line"/>
      <point x="490" y="33"/>
      <point x="456" y="33"/>
      <point x="426" y="37" type="curve" smooth="yes"/>
      <point x="307" y="42"/>
      <point x="232" y="81"/>
      <point x="232" y="186" type="curve" smooth="yes"/>
      <point x="231" y="278"/>
      <point x="294" y="348"/>
      <point x="411" y="387" type="curve"/>
      <point x="370" y="531" type="line"/>
    </contour>
    <contour>
      <point x="989" y="-72"/>
      <point x="872" y="-263"/>
      <point x="695" y="-263" type="curve" smooth="yes"/>
      <point x="623" y="-263"/>
      <point x="565" y="-221"/>
      <point x="565" y="-133" type="curve" smooth="yes"/>
      <point x="565" y="-14"/>
      <point x="673" y="52"/>
      <point x="752" y="95" type="curve"/>
      <point x="701" y="220" type="line"/>
      <point x="601" y="171"/>
      <point x="387" y="75"/>
      <point x="387" y="-133" type="curve" smooth="yes"/>
      <point x="387" y="-310"/>
      <point x="524" y="-419"/>
      <point x="702" y="-419" type="curve" smooth="yes"/>
      <point x="1045" y="-419"/>
      <point x="1149" y="-31"/>
      <point x="1131" y="207" type="curve"/>
      <point x="1011" y="257" type="line"/>
    </contour>
    <contour>
      <point x="1001" y="1168" type="move" name="top"/>
    </contour>
    <contour>
      <point x="785" y="-371" type="move" name="bottom"/>
    </contour>
    <contour>
      <point x="705" y="1168" type="move" name="topcandra"/>
    </contour>
  </outline>
</glyph>
<glyph name="d_ra-deva" format="1">
  <advance width="1031"/>
  <outline>
    <contour>
      <point x="288" y="-76" type="line"/>
      <point x="398" y="-207" type="line" smooth="yes"/>
      <point x="886" y="199" type="line"/>
      <point x="836" y="284" type="line"/>
    </contour>
    <component base="da-deva"/>
    <contour>
      <point x="725" y="1167" type="move" name="top"/>
    </contour>
    <contour>
      <point x="785" y="-88" type="move" name="bottom"/>
    </contour>
    <contour>
      <point x="552" y="1167" type="move" name="topcandra"/>
    </contour>
  </outline>
</glyph>
<glyph name="da_rVocalicMatra-deva" format="1">
  <advance width="1026"/>
  <outline>
    <contour>
      <point x="762" y="12"/>
      <point x="640" y="-93"/>
      <point x="640" y="-252" type="curve" smooth="yes"/>
      <point x="640" y="-392"/>
      <point x="761" y="-488"/>
      <point x="916" y="-488" type="curve" smooth="yes"/>
      <point x="1019" y="-488"/>
      <point x="1111" y="-452"/>
      <point x="1187" y="-396" type="curve"/>
      <point x="1126" y="-269" type="line"/>
      <point x="1063" y="-309"/>
      <point x="995" y="-339"/>
      <point x="927" y="-339" type="curve" smooth="yes"/>
      <point x="852" y="-340"/>
      <point x="812" y="-303"/>
      <point x="812" y="-245" type="curve" smooth="yes"/>
      <point x="812" y="-188"/>
      <point x="860" y="-120"/>
      <point x="1012" y="-70" type="curve"/>
      <point x="946" y="57" type="line"/>
    </contour>
    <contour>
      <point x="622" y="1145" type="line"/>
      <point x="622" y="846" type="line"/>
      <point x="742" y="874" type="line"/>
      <point x="661" y="898"/>
      <point x="595" y="906"/>
      <point x="542" y="906" type="curve" smooth="yes"/>
      <point x="199" y="906"/>
      <point x="65" y="746"/>
      <point x="65" y="503" type="curve" smooth="yes"/>
      <point x="65" y="251"/>
      <point x="220" y="65"/>
      <point x="541" y="65" type="curve" smooth="yes"/>
      <point x="656" y="65"/>
      <point x="760" y="89"/>
      <point x="843" y="144" type="curve" smooth="yes"/>
      <point x="903" y="184"/>
      <point x="941" y="262"/>
      <point x="941" y="324" type="curve" smooth="yes"/>
      <point x="941" y="424"/>
      <point x="848" y="495"/>
      <point x="736" y="525" type="curve"/>
      <point x="628" y="444" type="line"/>
      <point x="729" y="233" type="line"/>
      <point x="792" y="315" type="line"/>
      <point x="695" y="251"/>
      <point x="639" y="227"/>
      <point x="533" y="227" type="curve" smooth="yes"/>
      <point x="359" y="227"/>
      <point x="262" y="292"/>
      <point x="262" y="480" type="curve" smooth="yes"/>
      <point x="262" y="688"/>
      <point x="373" y="738"/>
      <point x="588" y="738" type="curve" smooth="yes"/>
      <point x="693" y="738"/>
      <point x="758" y="733"/>
      <point x="811" y="730" type="curve"/>
      <point x="811" y="1145" type="line"/>
    </contour>
    <contour>
      <point x="737" y="215" type="line"/>
      <point x="898" y="-106" type="line"/>
      <point x="1029" y="-64" type="line"/>
      <point x="849" y="266" type="line"/>
    </contour>
    <contour>
      <point x="-18" y="1277" type="line"/>
      <point x="-18" y="1114" type="line"/>
      <point x="1044" y="1114" type="line"/>
      <point x="1044" y="1277" type="line"/>
    </contour>
    <contour>
      <point x="716" y="1167" type="move" name="top"/>
    </contour>
    <contour>
      <point x="1023" y="-392" type="move" name="bottom"/>
    </contour>
    <contour>
      <point x="717" y="1168" type="move" name="topcandra"/>
    </contour>
  </outline>
</glyph>
<glyph name="dd_ddha-deva" format="1">
  <advance width="1077"/>
  <outline>
    <contour>
      <point x="-18" y="1277" type="line"/>
      <point x="-18" y="1114" type="line"/>
      <point x="1094" y="1114" type="line"/>
      <point x="1094" y="1277" type="line"/>
    </contour>
    <contour>
      <point x="700" y="1227" type="line"/>
      <point x="700" y="816" type="line"/>
      <point x="883" y="816" type="line"/>
      <point x="883" y="1227" type="line"/>
    </contour>
    <contour>
      <point x="430" y="976" type="line" smooth="yes"/>
      <point x="247" y="976"/>
      <point x="166" y="917"/>
      <point x="166" y="788" type="curve" smooth="yes"/>
      <point x="166" y="678"/>
      <point x="225" y="560"/>
      <point x="292" y="505" type="curve"/>
      <point x="324" y="479"/>
      <point x="346" y="478"/>
      <point x="365" y="480" type="curve" smooth="yes"/>
      <point x="424" y="485"/>
      <point x="565" y="504"/>
      <point x="677" y="504" type="curve" smooth="yes"/>
      <point x="793" y="504"/>
      <point x="820" y="478"/>
      <point x="820" y="413" type="curve" smooth="yes"/>
      <point x="820" y="332"/>
      <point x="752" y="291"/>
      <point x="590" y="291" type="curve" smooth="yes"/>
      <point x="383" y="291"/>
      <point x="295" y="347"/>
      <point x="181" y="462" type="curve"/>
      <point x="86" y="369" type="line"/>
      <point x="205" y="218"/>
      <point x="382" y="135"/>
      <point x="580" y="135" type="curve" smooth="yes"/>
      <point x="808" y="135"/>
      <point x="994" y="209"/>
      <point x="994" y="433" type="curve" smooth="yes"/>
      <point x="994" y="641"/>
      <point x="835" y="666"/>
      <point x="654" y="664" type="curve" smooth="yes"/>
      <point x="545" y="664"/>
      <point x="417" y="649"/>
      <point x="343" y="635" type="curve"/>
      <point x="363" y="622" type="line"/>
      <point x="352" y="633"/>
      <point x="330" y="683"/>
      <point x="330" y="734" type="curve" smooth="yes"/>
      <point x="330" y="798"/>
      <point x="358" y="816"/>
      <point x="478" y="816" type="curve" smooth="yes"/>
      <point x="812" y="816" type="line"/>
      <point x="791" y="976" type="line"/>
    </contour>
    <contour>
      <point x="319" y="28"/>
      <point x="406" y="132"/>
      <point x="638" y="138" type="curve"/>
      <point x="613" y="238" type="line"/>
      <point x="279" y="238"/>
      <point x="138" y="105"/>
      <point x="138" y="-136" type="curve" smooth="yes"/>
      <point x="138" y="-410"/>
      <point x="321" y="-555"/>
      <point x="601" y="-555" type="curve" smooth="yes"/>
      <point x="771" y="-555"/>
      <point x="1033" y="-496"/>
      <point x="1033" y="-245" type="curve" smooth="yes"/>
      <point x="1033" y="-91"/>
      <point x="924" y="-19"/>
      <point x="782" y="-19" type="curve" smooth="yes"/>
      <point x="612" y="-19"/>
      <point x="546" y="-122"/>
      <point x="546" y="-212" type="curve" smooth="yes"/>
      <point x="546" y="-303"/>
      <point x="584" y="-365"/>
      <point x="664" y="-432" type="curve"/>
      <point x="787" y="-407" type="line"/>
      <point x="719" y="-346"/>
      <point x="700" y="-296"/>
      <point x="700" y="-244" type="curve" smooth="yes"/>
      <point x="700" y="-196"/>
      <point x="729" y="-156"/>
      <point x="786" y="-156" type="curve" smooth="yes"/>
      <point x="838" y="-156"/>
      <point x="884" y="-169"/>
      <point x="884" y="-237" type="curve" smooth="yes"/>
      <point x="884" y="-350"/>
      <point x="792" y="-404"/>
      <point x="632" y="-407" type="curve" smooth="yes"/>
      <point x="404" y="-411"/>
      <point x="319" y="-346"/>
      <point x="319" y="-142" type="curve" smooth="yes"/>
    </contour>
    <contour>
      <point x="792" y="1167" type="move" name="top"/>
    </contour>
    <contour>
      <point x="657" y="-515" type="move" name="bottom"/>
    </contour>
    <contour>
      <point x="578" y="1167" type="move" name="topcandra"/>
    </contour>
  </outline>
</glyph>
<glyph name="eMatra_anusvara-deva" format="1">
  <advance width="540"/>
  <outline>
    <component base="anusvara-deva" xOffset="105" yOffset="83"/>
    <component base="eMatra-deva" xOffset="-3"/>
    <contour>
      <point x="270" y="1167" type="move" name="_top"/>
    </contour>
  </outline>
</glyph>
<glyph name="eight.dnom" format="1">
  <advance width="785"/>
  <outline>
    <contour>
      <point x="242" y="214" type="curve" smooth="yes" name="hr01"/>
      <point x="242" y="275"/>
      <point x="278" y="330"/>
      <point x="345" y="371" type="curve"/>
      <point x="448" y="327"/>
      <point x="540" y="303"/>
      <point x="540" y="211" type="curve" smooth="yes"/>
      <point x="540" y="139"/>
      <point x="473" y="81"/>
      <point x="390" y="81" type="curve" smooth="yes"/>
      <point x="302" y="81"/>
      <point x="242" y="144"/>
    </contour>
    <contour>
      <point x="435" y="462" type="curve" name="hr02"/>
      <point x="344" y="492"/>
      <point x="271" y="530"/>
      <point x="271" y="608" type="curve" smooth="yes"/>
      <point x="271" y="670"/>
      <point x="324" y="714"/>
      <point x="390" y="714" type="curve" smooth="yes"/>
      <point x="458" y="714"/>
      <point x="514" y="671"/>
      <point x="514" y="605" type="curve" smooth="yes"/>
      <point x="514" y="555"/>
      <point x="489" y="505"/>
    </contour>
    <contour>
      <point x="104" y="200" type="curve" smooth="yes" name="hr03"/>
      <point x="104" y="78"/>
      <point x="220" y="-25"/>
      <point x="390" y="-25" type="curve" smooth="yes"/>
      <point x="555" y="-25"/>
      <point x="676" y="76"/>
      <point x="676" y="205" type="curve" smooth="yes"/>
      <point x="676" y="302"/>
      <point x="618" y="367"/>
      <point x="529" y="413" type="curve"/>
      <point x="529" y="421" type="line"/>
      <point x="585" y="458"/>
      <point x="651" y="521"/>
      <point x="651" y="611" type="curve" smooth="yes" name="hr04"/>
      <point x="651" y="741"/>
      <point x="536" y="823"/>
      <point x="390" y="823" type="curve" smooth="yes"/>
      <point x="250" y="823"/>
      <point x="137" y="739"/>
      <point x="137" y="611" type="curve" smooth="yes"/>
      <point x="137" y="527"/>
      <point x="186" y="474"/>
      <point x="256" y="428" type="curve"/>
      <point x="256" y="420" type="line"/>
      <point x="178" y="376"/>
      <point x="104" y="298"/>
    </contour>
  </outline>
</glyph>
<glyph name="five.tnum" format="1">
  <advance width="1030"/>
  <outline>
    <contour>
      <point x="65" y="-9" type="line" name="hr01"/>
      <point x="157" y="-94"/>
      <point x="284" y="-177"/>
      <point x="494" y="-177" type="curve" smooth="yes" name="hr02"/>
      <point x="727" y="-177"/>
      <point x="932" y="-5"/>
      <point x="932" y="285" type="curve" smooth="yes"/>
      <point x="932" y="569"/>
      <point x="762" y="692"/>
      <point x="524" y="692" type="curve" smooth="yes"/>
      <point x="449" y="692"/>
      <point x="393" y="672"/>
      <point x="333" y="642" type="curve"/>
      <point x="366" y="1012" type="line"/>
      <point x="867" y="1012" type="line"/>
      <point x="867" y="1177" type="line"/>
      <point x="198" y="1177" type="line"/>
      <point x="157" y="534" type="line"/>
      <point x="255" y="471" type="line"/>
      <point x="333" y="523"/>
      <point x="385" y="548"/>
      <point x="472" y="548" type="curve" smooth="yes"/>
      <point x="631" y="548"/>
      <point x="738" y="457"/>
      <point x="738" y="278" type="curve" smooth="yes"/>
      <point x="738" y="102"/>
      <point x="628" y="-18"/>
      <point x="473" y="-18" type="curve" smooth="yes"/>
      <point x="327" y="-18"/>
      <point x="235" y="46"/>
      <point x="157" y="113" type="curve"/>
    </contour>
  </outline>
</glyph>
<glyph name="g_r_ya-deva" format="1">
  <advance width="1816"/>
  <outline>
    <contour>
      <point x="900" y="446" type="line"/>
      <point x="805" y="551" type="line"/>
      <point x="202" y="114" type="line"/>
      <point x="316" y="-23" type="line"/>
    </contour>
    <contour>
      <point x="273" y="718" type="line"/>
      <point x="88" y="696" type="line"/>
      <point x="88" y="566" type="line"/>
      <point x="269" y="365" type="line"/>
      <point x="396" y="366"/>
      <point x="423" y="427"/>
      <point x="423" y="503" type="curve" smooth="yes"/>
      <point x="423" y="718" type="line"/>
    </contour>
    <contour>
      <point x="233" y="1180" type="line"/>
      <point x="233" y="479" type="line"/>
      <point x="422" y="645" type="line"/>
      <point x="422" y="1180" type="line"/>
    </contour>
    <contour>
      <point x="-18" y="1277" type="line"/>
      <point x="-18" y="1114" type="line"/>
      <point x="793" y="1114" type="line"/>
      <point x="793" y="1277" type="line"/>
    </contour>
    <component base="ya-deva" xOffset="659"/>
    <contour>
      <point x="831" y="101" type="move" name="nukta"/>
    </contour>
    <contour>
      <point x="1368" y="1167" type="move" name="top"/>
    </contour>
    <contour>
      <point x="1115" y="1167" type="move" name="topcandra"/>
    </contour>
    <contour>
      <point x="1367" y="27" type="move" name="bottom"/>
    </contour>
  </outline>
</glyph>
<glyph name="gh_la-deva.loclMAR" format="1">
  <advance width="1203"/>
  <outline>
    <contour>
      <point x="233" y="868"/>
      <point x="135" y="719"/>
      <point x="135" y="562" type="curve" smooth="yes"/>
      <point x="135" y="398"/>
      <point x="259" y="275"/>
      <point x="488" y="275" type="curve" smooth="yes"/>
      <point x="684" y="275"/>
      <point x="842" y="351"/>
      <point x="935" y="437" type="curve"/>
      <point x="907" y="650" type="line"/>
      <point x="818" y="523"/>
      <point x="661" y="439"/>
      <point x="503" y="439" type="curve" smooth="yes"/>
      <point x="384" y="439"/>
      <point x="328" y="475"/>
      <point x="328" y="572" type="curve" smooth="yes"/>
      <point x="328" y="673"/>
      <point x="405" y="707"/>
      <point x="568" y="722" type="curve"/>
      <point x="560" y="874" type="line"/>
    </contour>
    <contour>
      <point x="307" y="1228"/>
      <point x="85" y="1182"/>
      <point x="85" y="1001" type="curve" smooth="yes"/>
      <point x="85" y="903"/>
      <point x="152" y="791"/>
      <point x="373" y="719" type="curve"/>
      <point x="461" y="791" type="line"/>
      <point x="375" y="812"/>
      <point x="276" y="888"/>
      <point x="276" y="972" type="curve" smooth="yes"/>
      <point x="276" y="1079"/>
      <point x="359" y="1117"/>
      <point x="486" y="1118" type="curve"/>
      <point x="503" y="1234" type="line"/>
    </contour>
    <contour>
      <point x="828" y="1197" type="line"/>
      <point x="828" y="25" type="line"/>
      <point x="1017" y="25" type="line"/>
      <point x="1017" y="1197" type="line"/>
    </contour>
    <contour>
      <point x="-18" y="1277" type="line"/>
      <point x="-18" y="1114" type="line"/>
      <point x="1220" y="1114" type="line"/>
      <point x="1220" y="1277" type="line"/>
    </contour>
    <contour>
      <point x="632" y="183"/>
      <point x="520" y="31"/>
      <point x="520" y="-166" type="curve" smooth="yes"/>
      <point x="520" y="-207"/>
      <point x="524" y="-247"/>
      <point x="538" y="-284" type="curve"/>
      <point x="699" y="-266" type="line"/>
      <point x="694" y="-238"/>
      <point x="692" y="-211"/>
      <point x="692" y="-183" type="curve" smooth="yes"/>
      <point x="692" y="-68"/>
      <point x="744" y="13"/>
      <point x="848" y="13" type="curve" smooth="yes"/>
      <point x="940" y="13"/>
      <point x="997" y="-44"/>
      <point x="997" y="-145" type="curve" smooth="yes"/>
      <point x="997" y="-238"/>
      <point x="970" y="-340"/>
      <point x="797" y="-467" type="curve"/>
      <point x="891" y="-594" type="line"/>
      <point x="1106" y="-462"/>
      <point x="1171" y="-282"/>
      <point x="1171" y="-149" type="curve" smooth="yes"/>
      <point x="1171" y="56"/>
      <point x="1048" y="183"/>
      <point x="842" y="183" type="curve" smooth="yes"/>
    </contour>
    <contour>
      <point x="136" y="181"/>
      <point x="23" y="63"/>
      <point x="23" y="-118" type="curve" smooth="yes"/>
      <point x="23" y="-344"/>
      <point x="155" y="-484"/>
      <point x="332" y="-589" type="curve"/>
      <point x="413" y="-461" type="line"/>
      <point x="260" y="-364"/>
      <point x="206" y="-270"/>
      <point x="206" y="-144" type="curve" smooth="yes"/>
      <point x="206" y="-32"/>
      <point x="277" y="10"/>
      <point x="358" y="10" type="curve" smooth="yes"/>
      <point x="463" y="10"/>
      <point x="536" y="-74"/>
      <point x="605" y="-193" type="curve"/>
      <point x="627" y="-71" type="line"/>
      <point x="557" y="107"/>
      <point x="456" y="181"/>
      <point x="316" y="181" type="curve" smooth="yes"/>
    </contour>
    <contour>
      <point x="926" y="1167" type="move" name="top"/>
    </contour>
    <contour>
      <point x="843" y="-482" type="move" name="bottom"/>
    </contour>
    <contour>
      <point x="656" y="1167" type="move" name="topcandra"/>
    </contour>
  </outline>
</glyph>
<glyph name="h_la-deva" format="1">
  <advance width="1120"/>
  <outline>
    <contour>
      <point x="319" y="558"/>
      <point x="75" y="468"/>
      <point x="75" y="197" type="curve" smooth="yes"/>
      <point x="75" y="-71"/>
      <point x="303" y="-333"/>
      <point x="781" y="-420" type="curve"/>
      <point x="824" y="-276" type="line"/>
      <point x="403" y="-187"/>
      <point x="256" y="2"/>
      <point x="256" y="174" type="curve" smooth="yes"/>
      <point x="256" y="323"/>
      <point x="336" y="400"/>
      <point x="566" y="400" type="curve" smooth="yes"/>
      <point x="851" y="400"/>
      <point x="899" y="299"/>
      <point x="899" y="196" type="curve" smooth="yes"/>
      <point x="899" y="126"/>
      <point x="877" y="71"/>
      <point x="833" y="8" type="curve"/>
      <point x="959" y="-83" type="line"/>
      <point x="1036" y="7"/>
      <point x="1059" y="116"/>
      <point x="1059" y="205" type="curve" smooth="yes"/>
      <point x="1059" y="398"/>
      <point x="937" y="558"/>
      <point x="564" y="558" type="curve" smooth="yes"/>
    </contour>
    <contour>
      <point x="442" y="309"/>
      <point x="366" y="252"/>
      <point x="366" y="145" type="curve" smooth="yes"/>
      <point x="366" y="22"/>
      <point x="470" y="-69"/>
      <point x="577" y="-103" type="curve"/>
      <point x="624" y="-13" type="line"/>
      <point x="531" y="28"/>
      <point x="500" y="75"/>
      <point x="500" y="129" type="curve" smooth="yes"/>
      <point x="500" y="166"/>
      <point x="520" y="190"/>
      <point x="562" y="190" type="curve" smooth="yes"/>
      <point x="621" y="190"/>
      <point x="671" y="150"/>
      <point x="696" y="90" type="curve"/>
      <point x="749" y="146" type="line"/>
      <point x="707" y="251"/>
      <point x="644" y="309"/>
      <point x="542" y="309" type="curve" smooth="yes"/>
    </contour>
    <contour>
      <point x="700" y="298"/>
      <point x="625" y="174"/>
      <point x="641" y="64" type="curve"/>
      <point x="763" y="65" type="line"/>
      <point x="755" y="139"/>
      <point x="787" y="191"/>
      <point x="844" y="191" type="curve" smooth="yes"/>
      <point x="889" y="191"/>
      <point x="912" y="165"/>
      <point x="925" y="147" type="curve"/>
      <point x="978" y="177" type="line"/>
      <point x="949" y="230"/>
      <point x="915" y="298"/>
      <point x="818" y="298" type="curve" smooth="yes"/>
    </contour>
    <contour>
      <point x="678" y="1162" type="line"/>
      <point x="678" y="929" type="line"/>
      <point x="395" y="929" type="line" smooth="yes"/>
      <point x="195" y="929"/>
      <point x="112" y="842"/>
      <point x="110" y="728" type="curve" smooth="yes"/>
      <point x="109" y="630"/>
      <point x="168" y="532"/>
      <point x="269" y="417" type="curve"/>
      <point x="385" y="463" type="line"/>
      <point x="334" y="549"/>
      <point x="301" y="630"/>
      <point x="303" y="682" type="curve" smooth="yes"/>
      <point x="304" y="729"/>
      <point x="332" y="762"/>
      <point x="423" y="762" type="curve" smooth="yes"/>
      <point x="867" y="762" type="line"/>
      <point x="867" y="1162" type="line"/>
    </contour>
    <contour>
      <point x="-18" y="1277" type="line"/>
      <point x="-18" y="1114" type="line"/>
      <point x="1137" y="1114" type="line"/>
      <point x="1137" y="1277" type="line"/>
    </contour>
    <contour>
      <point x="772" y="1167" type="move" name="top"/>
    </contour>
    <contour>
      <point x="579" y="-244" type="move" name="bottom"/>
    </contour>
    <contour>
      <point x="541" y="1167" type="move" name="topcandra"/>
    </contour>
  </outline>
</glyph>
<glyph name="ha_ra-deva" format="1">
  <advance width="1118"/>
  <outline>
    <contour>
      <point x="322" y="558"/>
      <point x="78" y="475"/>
      <point x="78" y="205" type="curve" smooth="yes"/>
      <point x="78" y="-71"/>
      <point x="306" y="-333"/>
      <point x="784" y="-420" type="curve"/>
      <point x="827" y="-276" type="line"/>
      <point x="406" y="-187"/>
      <point x="261" y="4"/>
      <point x="261" y="181" type="curve" smooth="yes"/>
      <point x="261" y="315"/>
      <point x="361" y="395"/>
      <point x="569" y="395" type="curve" smooth="yes"/>
      <point x="843" y="395"/>
      <point x="893" y="299"/>
      <point x="893" y="202" type="curve" smooth="yes"/>
      <point x="893" y="116"/>
      <point x="850" y="56"/>
      <point x="790" y="1" type="curve"/>
      <point x="916" y="-89" type="line"/>
      <point x="1015" y="-8"/>
      <point x="1061" y="106"/>
      <point x="1061" y="211" type="curve" smooth="yes"/>
      <point x="1061" y="396"/>
      <point x="923" y="558"/>
      <point x="567" y="558" type="curve" smooth="yes"/>
    </contour>
    <contour>
      <point x="412" y="136" type="line"/>
      <point x="507" y="6" type="line"/>
      <point x="975" y="361" type="line"/>
      <point x="863" y="452" type="line"/>
    </contour>
    <contour>
      <point x="678" y="1162" type="line"/>
      <point x="678" y="929" type="line"/>
      <point x="395" y="929" type="line" smooth="yes"/>
      <point x="195" y="929"/>
      <point x="112" y="842"/>
      <point x="110" y="728" type="curve" smooth="yes"/>
      <point x="109" y="630"/>
      <point x="168" y="532"/>
      <point x="269" y="417" type="curve"/>
      <point x="385" y="463" type="line"/>
      <point x="334" y="549"/>
      <point x="301" y="630"/>
      <point x="303" y="682" type="curve" smooth="yes"/>
      <point x="304" y="729"/>
      <point x="332" y="762"/>
      <point x="423" y="762" type="curve" smooth="yes"/>
      <point x="867" y="762" type="line"/>
      <point x="867" y="1162" type="line"/>
    </contour>
    <contour>
      <point x="-18" y="1277" type="line"/>
      <point x="-18" y="1114" type="line"/>
      <point x="1135" y="1114" type="line"/>
      <point x="1135" y="1277" type="line"/>
    </contour>
    <contour>
      <point x="773" y="1167" type="move" name="top"/>
    </contour>
    <contour>
      <point x="626" y="-318" type="move" name="bottom"/>
    </contour>
    <contour>
      <point x="534" y="1167" type="move" name="topcandra"/>
    </contour>
  </outline>
</glyph>
<glyph name="ha_uMatra-deva" format="1">
  <advance width="1022"/>
  <outline>
    <contour>
      <point x="341" y="556"/>
      <point x="93" y="479"/>
      <point x="93" y="216" type="curve" smooth="yes"/>
      <point x="93" y="43"/>
      <point x="202" y="-125"/>
      <point x="557" y="-251" type="curve"/>
      <point x="569" y="-208" type="line"/>
      <point x="497" y="-211"/>
      <point x="425" y="-235"/>
      <point x="359" y="-271" type="curve"/>
      <point x="433" y="-392" type="line"/>
      <point x="548" y="-338"/>
      <point x="599" y="-324"/>
      <point x="655" y="-324" type="curve" smooth="yes"/>
      <point x="732" y="-324"/>
      <point x="777" y="-352"/>
      <point x="777" y="-441" type="curve" smooth="yes"/>
      <point x="777" y="-515"/>
      <point x="728" y="-563"/>
      <point x="620" y="-563" type="curve" smooth="yes"/>
      <point x="513" y="-563"/>
      <point x="398" y="-522"/>
      <point x="225" y="-330" type="curve"/>
      <point x="122" y="-423" type="line"/>
      <point x="318" y="-671"/>
      <point x="481" y="-727"/>
      <point x="622" y="-727" type="curve" smooth="yes"/>
      <point x="834" y="-727"/>
      <point x="951" y="-604"/>
      <point x="951" y="-441" type="curve" smooth="yes"/>
      <point x="951" y="-300"/>
      <point x="878" y="-224"/>
      <point x="689" y="-153" type="curve" smooth="yes"/>
      <point x="487" y="-77"/>
      <point x="289" y="6"/>
      <point x="283" y="190" type="curve" smooth="yes"/>
      <point x="278" y="304"/>
      <point x="343" y="389"/>
      <point x="555" y="389" type="curve" smooth="yes"/>
      <point x="696" y="389"/>
      <point x="765" y="347"/>
      <point x="765" y="277" type="curve" smooth="yes"/>
      <point x="765" y="208"/>
      <point x="691" y="176"/>
      <point x="611" y="158" type="curve"/>
      <point x="669" y="10" type="line"/>
      <point x="816" y="33"/>
      <point x="928" y="133"/>
      <point x="928" y="278" type="curve" smooth="yes"/>
      <point x="928" y="465"/>
      <point x="777" y="556"/>
      <point x="552" y="556" type="curve" smooth="yes"/>
    </contour>
    <contour>
      <point x="664" y="1162" type="line"/>
      <point x="664" y="929" type="line"/>
      <point x="404" y="929" type="line" smooth="yes"/>
      <point x="206" y="929"/>
      <point x="120" y="843"/>
      <point x="120" y="726" type="curve" smooth="yes"/>
      <point x="119" y="629"/>
      <point x="176" y="535"/>
      <point x="278" y="417" type="curve"/>
      <point x="394" y="463" type="line"/>
      <point x="340" y="554"/>
      <point x="311" y="630"/>
      <point x="312" y="682" type="curve" smooth="yes"/>
      <point x="313" y="729"/>
      <point x="342" y="762"/>
      <point x="432" y="762" type="curve" smooth="yes"/>
      <point x="854" y="762" type="line"/>
      <point x="854" y="1162" type="line"/>
    </contour>
    <contour>
      <point x="-18" y="1277" type="line"/>
      <point x="-18" y="1114" type="line"/>
      <point x="1039" y="1114" type="line"/>
      <point x="1039" y="1277" type="line"/>
    </contour>
    <contour>
      <point x="759" y="1167" type="move" name="top"/>
    </contour>
    <contour>
      <point x="694" y="-647" type="move" name="bottom"/>
    </contour>
    <contour>
      <point x="534" y="1167" type="move" name="topcandra"/>
    </contour>
  </outline>
</glyph>
<glyph name="iMatra-deva.02" format="1">
  <advance width="559"/>
  <outline>
    <contour>
      <point x="430" y="1202" type="line"/>
      <point x="297" y="1335"/>
      <point x="273" y="1397"/>
      <point x="273" y="1472" type="curve" smooth="yes"/>
      <point x="273" y="1577"/>
      <point x="331" y="1624"/>
      <point x="569" y="1624" type="curve" smooth="yes"/>
      <point x="932" y="1624"/>
      <point x="1236" y="1512"/>
      <point x="1544" y="1351" type="curve"/>
      <point x="1613" y="1460" type="line"/>
      <point x="1275" y="1671"/>
      <point x="921" y="1797"/>
      <point x="542" y="1797" type="curve" smooth="yes"/>
      <point x="264" y="1797"/>
      <point x="78" y="1729"/>
      <point x="78" y="1516" type="curve" smooth="yes"/>
      <point x="78" y="1401"/>
      <point x="134" y="1305"/>
      <point x="268" y="1196" type="curve"/>
    </contour>
    <contour>
      <point x="374" y="1" type="line"/>
      <point x="374" y="1210" type="line"/>
      <point x="185" y="1210" type="line"/>
      <point x="185" y="1" type="line"/>
    </contour>
    <contour>
      <point x="581" y="1114" type="line"/>
      <point x="581" y="1277" type="line"/>
      <point x="-18" y="1277" type="line"/>
      <point x="-18" y="1114" type="line"/>
    </contour>
    <contour>
      <point x="1578" y="1407" type="move" name="imatra"/>
    </contour>
    <contour>
      <point x="1396" y="1415" type="move" name="top"/>
    </contour>
    <contour>
      <point x="1670" y="1352" type="move" name="topcandra"/>
    </contour>
  </outline>
</glyph>
<glyph name="j_da-deva" format="1">
  <advance width="1960"/>
  <outline>
    <contour>
      <point x="1556" y="1145" type="line"/>
      <point x="1556" y="846" type="line"/>
      <point x="1676" y="874" type="line"/>
      <point x="1595" y="898"/>
      <point x="1506" y="906"/>
      <point x="1401" y="906" type="curve" smooth="yes"/>
      <point x="569" y="905" type="line"/>
      <point x="640" y="752" type="line"/>
      <point x="1149" y="752" type="line"/>
      <point x="1129" y="768" type="line"/>
      <point x="1043" y="696"/>
      <point x="999" y="610"/>
      <point x="999" y="477" type="curve"/>
      <point x="999" y="273"/>
      <point x="1139" y="65"/>
      <point x="1475" y="65" type="curve" smooth="yes"/>
      <point x="1590" y="65"/>
      <point x="1694" y="89"/>
      <point x="1777" y="144" type="curve" smooth="yes"/>
      <point x="1837" y="184"/>
      <point x="1875" y="262"/>
      <point x="1875" y="324" type="curve" smooth="yes"/>
      <point x="1875" y="424"/>
      <point x="1782" y="495"/>
      <point x="1670" y="525" type="curve"/>
      <point x="1562" y="444" type="line"/>
      <point x="1663" y="233" type="line"/>
      <point x="1726" y="315" type="line"/>
      <point x="1629" y="251"/>
      <point x="1573" y="227"/>
      <point x="1467" y="227" type="curve" smooth="yes"/>
      <point x="1293" y="227"/>
      <point x="1196" y="292"/>
      <point x="1196" y="480" type="curve" smooth="yes"/>
      <point x="1196" y="688"/>
      <point x="1307" y="738"/>
      <point x="1522" y="738" type="curve" smooth="yes"/>
      <point x="1627" y="738"/>
      <point x="1692" y="733"/>
      <point x="1745" y="730" type="curve"/>
      <point x="1745" y="1145" type="line"/>
    </contour>
    <contour>
      <point x="508" y="774" type="line"/>
      <point x="627" y="718"/>
      <point x="680" y="642"/>
      <point x="680" y="530" type="curve" smooth="yes"/>
      <point x="680" y="430"/>
      <point x="624" y="368"/>
      <point x="515" y="367" type="curve" smooth="yes"/>
      <point x="266" y="363"/>
      <point x="224" y="697"/>
      <point x="201" y="888" type="curve"/>
      <point x="50" y="867" type="line"/>
      <point x="72" y="478"/>
      <point x="193" y="190"/>
      <point x="527" y="190" type="curve" smooth="yes"/>
      <point x="730" y="190"/>
      <point x="865" y="306"/>
      <point x="865" y="488" type="curve" smooth="yes"/>
      <point x="865" y="645"/>
      <point x="796" y="722"/>
      <point x="655" y="785" type="curve"/>
      <point x="569" y="906" type="line"/>
    </contour>
    <contour>
      <point x="-18" y="1277" type="line"/>
      <point x="-18" y="1114" type="line"/>
      <point x="953" y="1114" type="line"/>
      <point x="953" y="1277" type="line"/>
    </contour>
    <contour>
      <point x="1671" y="215" type="line"/>
      <point x="1856" y="-155" type="line"/>
      <point x="2005" y="-66" type="line"/>
      <point x="1783" y="266" type="line"/>
    </contour>
    <contour>
      <point x="912" y="1277" type="line"/>
      <point x="912" y="1114" type="line"/>
      <point x="1978" y="1114" type="line"/>
      <point x="1978" y="1277" type="line"/>
    </contour>
    <contour>
      <point x="962" y="72" type="move" name="nukta"/>
    </contour>
    <contour>
      <point x="1650" y="1167" type="move" name="top"/>
    </contour>
    <contour>
      <point x="1458" y="1167" type="move" name="topcandra"/>
    </contour>
    <contour>
      <point x="1489" y="13" type="move" name="bottom"/>
    </contour>
  </outline>
</glyph>
<glyph name="j_j_nya-deva" format="1">
  <advance width="3328"/>
  <outline>
    <contour>
      <point x="2367" y="929"/>
      <point x="2315" y="921"/>
      <point x="2271" y="901" type="curve"/>
      <point x="2302" y="745" type="line"/>
      <point x="2338" y="753"/>
      <point x="2374" y="758"/>
      <point x="2425" y="758" type="curve" smooth="yes"/>
      <point x="2525" y="758"/>
      <point x="2599" y="715"/>
      <point x="2601" y="578" type="curve" smooth="yes"/>
      <point x="2603" y="432"/>
      <point x="2515" y="373"/>
      <point x="2405" y="373" type="curve" smooth="yes"/>
      <point x="2220" y="373"/>
      <point x="2098" y="511"/>
      <point x="2039" y="905" type="curve"/>
      <point x="1893" y="858" type="line"/>
      <point x="1958" y="329"/>
      <point x="2195" y="203"/>
      <point x="2409" y="203" type="curve" smooth="yes"/>
      <point x="2634" y="203"/>
      <point x="2775" y="333"/>
      <point x="2775" y="569" type="curve" smooth="yes"/>
      <point x="2775" y="814"/>
      <point x="2619" y="929"/>
      <point x="2425" y="929" type="curve" smooth="yes"/>
    </contour>
    <contour>
      <point x="508" y="774" type="line"/>
      <point x="627" y="718"/>
      <point x="680" y="641"/>
      <point x="680" y="540" type="curve" smooth="yes"/>
      <point x="680" y="441"/>
      <point x="624" y="379"/>
      <point x="515" y="377" type="curve" smooth="yes"/>
      <point x="266" y="374"/>
      <point x="224" y="708"/>
      <point x="201" y="898" type="curve"/>
      <point x="50" y="878" type="line"/>
      <point x="72" y="488"/>
      <point x="193" y="200"/>
      <point x="527" y="200" type="curve" smooth="yes"/>
      <point x="730" y="200"/>
      <point x="865" y="317"/>
      <point x="865" y="499" type="curve" smooth="yes"/>
      <point x="865" y="644"/>
      <point x="796" y="721"/>
      <point x="655" y="795" type="curve"/>
      <point x="569" y="905" type="line"/>
    </contour>
    <contour>
      <point x="-18" y="1277" type="line"/>
      <point x="-18" y="1114" type="line"/>
      <point x="953" y="1114" type="line"/>
      <point x="953" y="1277" type="line"/>
    </contour>
    <contour>
      <point x="569" y="905" type="line"/>
      <point x="632" y="745" type="line"/>
      <point x="1122" y="745" type="line"/>
      <point x="1122" y="905" type="line"/>
    </contour>
    <contour>
      <point x="1437" y="774" type="line"/>
      <point x="1556" y="718"/>
      <point x="1609" y="641"/>
      <point x="1609" y="540" type="curve" smooth="yes"/>
      <point x="1609" y="441"/>
      <point x="1553" y="379"/>
      <point x="1444" y="377" type="curve" smooth="yes"/>
      <point x="1195" y="374"/>
      <point x="1152" y="708"/>
      <point x="1128" y="905" type="curve"/>
      <point x="978" y="885" type="line"/>
      <point x="999" y="488"/>
      <point x="1121" y="200"/>
      <point x="1455" y="200" type="curve" smooth="yes"/>
      <point x="1659" y="200"/>
      <point x="1794" y="317"/>
      <point x="1794" y="499" type="curve" smooth="yes"/>
      <point x="1794" y="644"/>
      <point x="1725" y="721"/>
      <point x="1583" y="795" type="curve"/>
      <point x="1498" y="905" type="line"/>
    </contour>
    <contour>
      <point x="904" y="1277" type="line"/>
      <point x="904" y="1114" type="line"/>
      <point x="1873" y="1114" type="line"/>
      <point x="1873" y="1277" type="line"/>
    </contour>
    <contour>
      <point x="1498" y="905" type="line"/>
      <point x="1569" y="738" type="line"/>
      <point x="2039" y="738" type="line"/>
      <point x="2039" y="905" type="line"/>
    </contour>
    <contour>
      <point x="2967" y="677"/>
      <point x="2788" y="639"/>
      <point x="2673" y="653" type="curve"/>
      <point x="2718" y="498" type="line"/>
      <point x="2820" y="479"/>
      <point x="3025" y="522"/>
      <point x="3094" y="586" type="curve"/>
      <point x="3087" y="767" type="line"/>
    </contour>
    <contour>
      <point x="2951" y="1197" type="line"/>
      <point x="2951" y="0" type="line"/>
      <point x="3140" y="0" type="line"/>
      <point x="3140" y="1197" type="line"/>
    </contour>
    <contour>
      <point x="1833" y="1277" type="line"/>
      <point x="1833" y="1114" type="line"/>
      <point x="3345" y="1114" type="line"/>
      <point x="3345" y="1277" type="line"/>
    </contour>
    <contour>
      <point x="2053" y="72" type="move" name="nukta"/>
    </contour>
    <contour>
      <point x="3046" y="1167" type="move" name="top"/>
    </contour>
    <contour>
      <point x="2613" y="1167" type="move" name="topcandra"/>
    </contour>
    <contour>
      <point x="3046" y="27" type="move" name="bottom"/>
    </contour>
  </outline>
</glyph>
<glyph name="k_ssa-deva" format="1">
  <advance width="1447"/>
  <outline>
    <contour>
      <point x="286" y="1310"/>
      <point x="154" y="1213"/>
      <point x="154" y="1038" type="curve" smooth="yes"/>
      <point x="154" y="929"/>
      <point x="196" y="835"/>
      <point x="351" y="728" type="curve"/>
      <point x="506" y="802" type="line"/>
      <point x="374" y="887"/>
      <point x="333" y="956"/>
      <point x="333" y="1022" type="curve" smooth="yes"/>
      <point x="333" y="1087"/>
      <point x="364" y="1154"/>
      <point x="487" y="1154" type="curve" smooth="yes"/>
      <point x="594" y="1154"/>
      <point x="643" y="1115"/>
      <point x="643" y="1026" type="curve" smooth="yes"/>
      <point x="643" y="938"/>
      <point x="584" y="879"/>
      <point x="437" y="797" type="curve" smooth="yes"/>
      <point x="158" y="654"/>
      <point x="66" y="581"/>
      <point x="66" y="401" type="curve" smooth="yes"/>
      <point x="66" y="142"/>
      <point x="287" y="41"/>
      <point x="472" y="41" type="curve" smooth="yes"/>
      <point x="567" y="41"/>
      <point x="680" y="68"/>
      <point x="733" y="128" type="curve"/>
      <point x="666" y="282" type="line"/>
      <point x="624" y="224"/>
      <point x="535" y="199"/>
      <point x="469" y="199" type="curve"/>
      <point x="373" y="199"/>
      <point x="266" y="250"/>
      <point x="266" y="394" type="curve" smooth="yes"/>
      <point x="266" y="514"/>
      <point x="337" y="560"/>
      <point x="570" y="694" type="curve" smooth="yes"/>
      <point x="723" y="781"/>
      <point x="827" y="880"/>
      <point x="827" y="1034" type="curve" smooth="yes"/>
      <point x="827" y="1219"/>
      <point x="693" y="1310"/>
      <point x="494" y="1310" type="curve" smooth="yes"/>
    </contour>
    <contour>
      <point x="557" y="181" type="line"/>
      <point x="749" y="-135" type="line"/>
      <point x="895" y="-43" type="line"/>
      <point x="709" y="206" type="line"/>
    </contour>
    <contour>
      <point x="452" y="357" type="line"/>
      <point x="563" y="170" type="line"/>
      <point x="647" y="82" type="line"/>
      <point x="735" y="130"/>
      <point x="786" y="173"/>
      <point x="789" y="237" type="curve" smooth="yes"/>
      <point x="790" y="300"/>
      <point x="711" y="393"/>
      <point x="567" y="433" type="curve"/>
    </contour>
    <contour>
      <point x="422" y="674" type="line"/>
      <point x="628" y="560"/>
      <point x="787" y="519"/>
      <point x="942" y="519" type="curve" smooth="yes"/>
      <point x="1016" y="519"/>
      <point x="1102" y="531"/>
      <point x="1183" y="549" type="curve"/>
      <point x="1182" y="706" type="line"/>
      <point x="1096" y="688"/>
      <point x="1013" y="677"/>
      <point x="948" y="677" type="curve" smooth="yes"/>
      <point x="827" y="677"/>
      <point x="710" y="703"/>
      <point x="575" y="774" type="curve"/>
    </contour>
    <contour>
      <point x="1082" y="1217" type="line"/>
      <point x="1082" y="1" type="line"/>
      <point x="1262" y="1" type="line"/>
      <point x="1262" y="1217" type="line"/>
    </contour>
    <contour>
      <point x="890" y="1277" type="line"/>
      <point x="890" y="1114" type="line"/>
      <point x="1464" y="1114" type="line"/>
      <point x="1464" y="1277" type="line"/>
    </contour>
    <contour>
      <point x="1172" y="1167" type="move" name="top"/>
    </contour>
    <contour>
      <point x="1172" y="27" type="move" name="bottom"/>
    </contour>
    <contour>
      <point x="863" y="1167" type="move" name="topcandra"/>
    </contour>
  </outline>
</glyph>
<glyph name="k_va-deva" format="1">
  <advance width="2237"/>
  <outline>
    <component base="k-deva"/>
    <component base="va-deva" xOffset="1146"/>
    <contour>
      <point x="1959" y="1167" type="move" name="top"/>
    </contour>
    <contour>
      <point x="1961" y="27" type="move" name="bottom"/>
    </contour>
    <contour>
      <point x="1614" y="1167" type="move" name="topcandra"/>
    </contour>
  </outline>
</glyph>
<glyph name="ka_ra-deva" format="1">
  <advance width="1520"/>
  <outline>
    <contour>
      <point x="776" y="364" type="line"/>
      <point x="707" y="452" type="line"/>
      <point x="153" y="69" type="line"/>
      <point x="262" y="-65" type="line"/>
    </contour>
    <component base="ka-deva" yOffset="-5"/>
    <contour>
      <point x="792" y="1167" type="move" name="top"/>
    </contour>
    <contour>
      <point x="795" y="27" type="move" name="bottom"/>
    </contour>
    <contour>
      <point x="794" y="1167" type="move" name="topcandra"/>
    </contour>
  </outline>
</glyph>
<glyph name="kh_sha-deva" format="1">
  <advance width="2515"/>
  <outline>
    <contour>
      <point x="359" y="1172" type="line"/>
      <point x="359" y="808" type="line" smooth="yes"/>
      <point x="359" y="725"/>
      <point x="336" y="683"/>
      <point x="277" y="683" type="curve" smooth="yes"/>
      <point x="244" y="683"/>
      <point x="212" y="693"/>
      <point x="172" y="727" type="curve"/>
      <point x="55" y="645" type="line"/>
      <point x="268" y="113"/>
      <point x="492" y="-58"/>
      <point x="815" y="-58" type="curve" smooth="yes"/>
      <point x="889" y="-58"/>
      <point x="979" y="-48"/>
      <point x="1051" y="-19" type="curve"/>
      <point x="1017" y="138" type="line"/>
      <point x="957" y="121"/>
      <point x="885" y="107"/>
      <point x="807" y="107" type="curve" smooth="yes"/>
      <point x="584" y="107"/>
      <point x="403" y="235"/>
      <point x="268" y="585" type="curve"/>
      <point x="248" y="551" type="line"/>
      <point x="271" y="542"/>
      <point x="302" y="530"/>
      <point x="345" y="530" type="curve" smooth="yes"/>
      <point x="435" y="530"/>
      <point x="548" y="580"/>
      <point x="548" y="798" type="curve" smooth="yes"/>
      <point x="548" y="1172" type="line"/>
    </contour>
    <contour>
      <point x="799" y="970"/>
      <point x="635" y="884"/>
      <point x="634" y="614" type="curve" smooth="yes"/>
      <point x="634" y="444"/>
      <point x="714" y="273"/>
      <point x="972" y="273" type="curve" smooth="yes"/>
      <point x="1133" y="273"/>
      <point x="1266" y="361"/>
      <point x="1329" y="473" type="curve"/>
      <point x="1261" y="599" type="line"/>
      <point x="1205" y="506"/>
      <point x="1110" y="434"/>
      <point x="998" y="434" type="curve" smooth="yes"/>
      <point x="873" y="434"/>
      <point x="824" y="487"/>
      <point x="825" y="615" type="curve" smooth="yes"/>
      <point x="825" y="767"/>
      <point x="901" y="810"/>
      <point x="1041" y="810" type="curve" smooth="yes"/>
      <point x="1093" y="810"/>
      <point x="1138" y="806"/>
      <point x="1198" y="795" type="curve"/>
      <point x="1214" y="939" type="line"/>
      <point x="1154" y="961"/>
      <point x="1091" y="970"/>
      <point x="1031" y="970" type="curve" smooth="yes"/>
    </contour>
    <contour>
      <point x="-18" y="1277" type="line"/>
      <point x="-18" y="1114" type="line"/>
      <point x="1168" y="1114" type="line"/>
      <point x="1168" y="1277" type="line"/>
    </contour>
    <contour>
      <point x="1366" y="508" type="line"/>
      <point x="1795" y="-47" type="line"/>
      <point x="1941" y="77" type="line"/>
      <point x="1494" y="559" type="line"/>
    </contour>
    <contour>
      <point x="1279" y="681" type="line"/>
      <point x="1241" y="612"/>
      <point x="1230" y="554"/>
      <point x="1230" y="512" type="curve" smooth="yes"/>
      <point x="1229" y="419"/>
      <point x="1297" y="383"/>
      <point x="1353" y="383" type="curve" smooth="yes"/>
      <point x="1417" y="383"/>
      <point x="1467" y="402"/>
      <point x="1571" y="454" type="curve"/>
      <point x="1552" y="496" type="line"/>
      <point x="1394" y="681" type="line"/>
    </contour>
    <contour>
      <point x="1357" y="1298"/>
      <point x="1244" y="1183"/>
      <point x="1245" y="1049" type="curve" smooth="yes"/>
      <point x="1246" y="949"/>
      <point x="1301" y="858"/>
      <point x="1428" y="798" type="curve"/>
      <point x="1508" y="906" type="line"/>
      <point x="1447" y="949"/>
      <point x="1424" y="988"/>
      <point x="1424" y="1034" type="curve" smooth="yes"/>
      <point x="1424" y="1101"/>
      <point x="1479" y="1140"/>
      <point x="1573" y="1140" type="curve" smooth="yes"/>
      <point x="1694" y="1140"/>
      <point x="1746" y="1059"/>
      <point x="1746" y="953" type="curve" smooth="yes"/>
      <point x="1746" y="760"/>
      <point x="1613" y="632"/>
      <point x="1345" y="529" type="curve"/>
      <point x="1469" y="414" type="line"/>
      <point x="1746" y="514"/>
      <point x="1931" y="689"/>
      <point x="1931" y="955" type="curve" smooth="yes"/>
      <point x="1931" y="1139"/>
      <point x="1819" y="1298"/>
      <point x="1569" y="1298" type="curve" smooth="yes"/>
    </contour>
    <contour>
      <point x="2140" y="1197" type="line"/>
      <point x="2140" y="0" type="line"/>
      <point x="2330" y="0" type="line"/>
      <point x="2330" y="1197" type="line"/>
    </contour>
    <contour>
      <point x="1988" y="1277" type="line"/>
      <point x="1988" y="1114" type="line"/>
      <point x="2533" y="1114" type="line"/>
      <point x="2533" y="1277" type="line"/>
    </contour>
    <contour>
      <point x="1411" y="72" type="move" name="nukta"/>
    </contour>
    <contour>
      <point x="2235" y="1167" type="move" name="top"/>
    </contour>
    <contour>
      <point x="1915" y="1167" type="move" name="topcandra"/>
    </contour>
    <contour>
      <point x="2235" y="27" type="move" name="bottom"/>
    </contour>
  </outline>
</glyph>
<glyph name="khh_sha-deva" format="1">
  <advance width="2515"/>
  <outline>
    <component base="nukta-deva" xOffset="-118"/>
    <component base="kh_sha-deva"/>
    <contour>
      <point x="155" y="27" type="move" name="nukta"/>
    </contour>
    <contour>
      <point x="461" y="1167" type="move" name="top"/>
    </contour>
    <contour>
      <point x="867" y="1167" type="move" name="topcandra"/>
    </contour>
    <contour>
      <point x="764" y="0" type="move" name="bottom"/>
    </contour>
  </outline>
</glyph>
<glyph name="khh_va-deva" format="1">
  <advance width="2175"/>
  <outline>
    <contour>
      <point x="366" y="1172" type="line"/>
      <point x="366" y="808" type="line" smooth="yes"/>
      <point x="366" y="725"/>
      <point x="343" y="683"/>
      <point x="284" y="683" type="curve" smooth="yes"/>
      <point x="251" y="683"/>
      <point x="219" y="693"/>
      <point x="179" y="727" type="curve"/>
      <point x="62" y="645" type="line"/>
      <point x="275" y="113"/>
      <point x="499" y="-58"/>
      <point x="822" y="-58" type="curve" smooth="yes"/>
      <point x="896" y="-58"/>
      <point x="986" y="-48"/>
      <point x="1058" y="-19" type="curve"/>
      <point x="1024" y="138" type="line"/>
      <point x="964" y="121"/>
      <point x="892" y="107"/>
      <point x="814" y="107" type="curve" smooth="yes"/>
      <point x="591" y="107"/>
      <point x="410" y="235"/>
      <point x="275" y="585" type="curve"/>
      <point x="255" y="551" type="line"/>
      <point x="278" y="542"/>
      <point x="309" y="530"/>
      <point x="352" y="530" type="curve" smooth="yes"/>
      <point x="442" y="530"/>
      <point x="555" y="580"/>
      <point x="555" y="798" type="curve" smooth="yes"/>
      <point x="555" y="1172" type="line"/>
    </contour>
    <contour>
      <point x="799" y="926"/>
      <point x="630" y="840"/>
      <point x="629" y="591" type="curve" smooth="yes"/>
      <point x="629" y="361"/>
      <point x="775" y="255"/>
      <point x="957" y="255" type="curve" smooth="yes"/>
      <point x="1133" y="255"/>
      <point x="1264" y="344"/>
      <point x="1336" y="448" type="curve"/>
      <point x="1268" y="574" type="line"/>
      <point x="1203" y="488"/>
      <point x="1110" y="416"/>
      <point x="992" y="416" type="curve" smooth="yes"/>
      <point x="873" y="416"/>
      <point x="819" y="467"/>
      <point x="820" y="593" type="curve" smooth="yes"/>
      <point x="821" y="727"/>
      <point x="891" y="766"/>
      <point x="1011" y="766" type="curve" smooth="yes"/>
      <point x="1063" y="766"/>
      <point x="1115" y="762"/>
      <point x="1168" y="750" type="curve"/>
      <point x="1191" y="895" type="line"/>
      <point x="1131" y="918"/>
      <point x="1061" y="926"/>
      <point x="1001" y="926" type="curve" smooth="yes"/>
    </contour>
    <contour>
      <point x="1341" y="933"/>
      <point x="1206" y="826"/>
      <point x="1206" y="595" type="curve" smooth="yes"/>
      <point x="1206" y="435"/>
      <point x="1283" y="268"/>
      <point x="1521" y="268" type="curve" smooth="yes"/>
      <point x="1671" y="268"/>
      <point x="1800" y="331"/>
      <point x="1873" y="426" type="curve"/>
      <point x="1839" y="573" type="line"/>
      <point x="1765" y="488"/>
      <point x="1666" y="429"/>
      <point x="1549" y="429" type="curve" smooth="yes"/>
      <point x="1450" y="429"/>
      <point x="1397" y="472"/>
      <point x="1397" y="592" type="curve" smooth="yes"/>
      <point x="1397" y="710"/>
      <point x="1450" y="766"/>
      <point x="1583" y="769" type="curve" smooth="yes"/>
      <point x="1662" y="771"/>
      <point x="1770" y="754"/>
      <point x="1875" y="729" type="curve"/>
      <point x="1871" y="836" type="line"/>
      <point x="1812" y="891"/>
      <point x="1695" y="933"/>
      <point x="1552" y="933" type="curve" smooth="yes"/>
    </contour>
    <contour>
      <point x="1800" y="1181" type="line"/>
      <point x="1800" y="0" type="line"/>
      <point x="1989" y="0" type="line"/>
      <point x="1989" y="1181" type="line"/>
    </contour>
    <contour>
      <point x="-18" y="1277" type="line"/>
      <point x="-18" y="1114" type="line"/>
      <point x="2192" y="1114" type="line"/>
      <point x="2192" y="1277" type="line"/>
    </contour>
    <component base="nukta-deva" xOffset="-103"/>
    <contour>
      <point x="1249" y="72" type="move" name="nukta"/>
    </contour>
    <contour>
      <point x="1896" y="1168" type="move" name="top"/>
    </contour>
    <contour>
      <point x="1527" y="1168" type="move" name="topcandra"/>
    </contour>
    <contour>
      <point x="1900" y="28" type="move" name="bottom"/>
    </contour>
  </outline>
</glyph>
<glyph name="l.a" format="1">
  <advance width="515"/>
  <outline>
    <contour>
      <point x="162" y="0" type="line"/>
      <point x="354" y="0" type="line"/>
      <point x="354" y="1454" type="line"/>
      <point x="162" y="1454" type="line"/>
    </contour>
    <contour>
      <point x="258" y="-45" type="move" name="mark0"/>
    </contour>
  </outline>
</glyph>
<glyph name="lcaron.a" format="1">
  <advance width="563"/>
  <outline>
    <contour>
      <point x="162" y="0" type="line"/>
      <point x="354" y="0" type="line"/>
      <point x="354" y="1454" type="line"/>
      <point x="162" y="1454" type="line"/>
    </contour>
    <contour>
      <point x="558" y="1122" type="line"/>
      <point x="590" y="1439" type="line"/>
      <point x="591" y="1560" type="line"/>
      <point x="458" y="1560" type="line"/>
      <point x="466" y="1122" type="line"/>
    </contour>
  </outline>
</glyph>
<glyph name="n_sa-deva" format="1">
  <advance width="1873"/>
  <outline>
    <contour>
      <point x="1574" y="722" type="line"/>
      <point x="1496" y="692"/>
      <point x="1396" y="674"/>
      <point x="1298" y="674" type="curve" smooth="yes"/>
      <point x="1190" y="674"/>
      <point x="1085" y="689"/>
      <point x="1011" y="722" type="curve"/>
      <point x="954" y="576" type="line"/>
      <point x="1059" y="527"/>
      <point x="1188" y="504"/>
      <point x="1315" y="504" type="curve" smooth="yes"/>
      <point x="1409" y="504"/>
      <point x="1500" y="517"/>
      <point x="1574" y="541" type="curve"/>
    </contour>
    <contour>
      <point x="-18" y="1277" type="line"/>
      <point x="-18" y="1114" type="line"/>
      <point x="1890" y="1114" type="line"/>
      <point x="1890" y="1277" type="line"/>
    </contour>
    <contour>
      <point x="1499" y="1149" type="line"/>
      <point x="1499" y="0" type="line"/>
      <point x="1688" y="0" type="line"/>
      <point x="1688" y="1149" type="line"/>
    </contour>
    <contour>
      <point x="900" y="1180" type="line"/>
      <point x="900" y="800" type="line" smooth="yes"/>
      <point x="900" y="720"/>
      <point x="880" y="680"/>
      <point x="813" y="680" type="curve" smooth="yes"/>
      <point x="765" y="680"/>
      <point x="708" y="716"/>
      <point x="663" y="769" type="curve"/>
      <point x="561" y="670" type="line"/>
      <point x="1026" y="-33" type="line"/>
      <point x="1178" y="77" type="line"/>
      <point x="808" y="574" type="line"/>
      <point x="801" y="561" type="line"/>
      <point x="818" y="547"/>
      <point x="847" y="535"/>
      <point x="882" y="535" type="curve" smooth="yes"/>
      <point x="1000" y="535"/>
      <point x="1089" y="619"/>
      <point x="1089" y="797" type="curve" smooth="yes"/>
      <point x="1089" y="1180" type="line"/>
    </contour>
    <contour>
      <point x="46" y="769" type="line"/>
      <point x="46" y="618" type="line"/>
      <point x="196" y="400" type="line"/>
      <point x="330" y="400"/>
      <point x="351" y="476"/>
      <point x="351" y="570" type="curve" smooth="yes"/>
      <point x="351" y="769" type="line"/>
    </contour>
    <contour>
      <point x="174" y="769" type="line"/>
      <point x="174" y="602" type="line"/>
      <point x="673" y="602" type="line"/>
      <point x="663" y="769" type="line"/>
    </contour>
    <contour>
      <point x="702" y="72" type="move" name="nukta"/>
    </contour>
    <contour>
      <point x="1594" y="1167" type="move" name="top"/>
    </contour>
    <contour>
      <point x="1303" y="1167" type="move" name="topcandra"/>
    </contour>
    <contour>
      <point x="1594" y="27" type="move" name="bottom"/>
    </contour>
  </outline>
</glyph>
<glyph name="oMatra_anusvara-deva" format="1">
  <advance width="559"/>
  <outline>
    <contour>
      <point x="351" y="1640"/>
      <point x="318" y="1609"/>
      <point x="318" y="1534" type="curve" smooth="yes"/>
      <point x="318" y="1460"/>
      <point x="351" y="1429"/>
      <point x="426" y="1429" type="curve" smooth="yes"/>
      <point x="501" y="1429"/>
      <point x="533" y="1460"/>
      <point x="533" y="1534" type="curve" smooth="yes"/>
      <point x="533" y="1609"/>
      <point x="501" y="1640"/>
      <point x="426" y="1640" type="curve" smooth="yes"/>
    </contour>
    <component base="aaMatra-deva"/>
    <component base="eMatra-deva" xOffset="10"/>
  </outline>
</glyph>
<glyph name="parenright.dnom" format="1">
  <advance width="497"/>
  <outline>
    <contour>
      <point x="79" y="-117" type="curve" name="hr00"/>
      <point x="187" y="-166" type="line"/>
      <point x="301" y="3"/>
      <point x="364" y="166"/>
      <point x="364" y="399" type="curve" smooth="yes"/>
      <point x="364" y="632"/>
      <point x="301" y="794"/>
      <point x="187" y="961" type="curve"/>
      <point x="79" y="913" type="line"/>
      <point x="180" y="752"/>
      <point x="222" y="581"/>
      <point x="222" y="399" type="curve" smooth="yes"/>
      <point x="222" y="217"/>
      <point x="180" y="47"/>
    </contour>
  </outline>
</glyph>
<glyph name="parenright.numr" format="1">
  <advance width="497"/>
  <outline>
    <contour>
      <point x="79" y="428" type="curve" name="hr00"/>
      <point x="187" y="377" type="line"/>
      <point x="301" y="548"/>
      <point x="364" y="709"/>
      <point x="364" y="943" type="curve" smooth="yes"/>
      <point x="364" y="1175"/>
      <point x="301" y="1336"/>
      <point x="187" y="1504" type="curve"/>
      <point x="79" y="1456" type="line"/>
      <point x="180" y="1295"/>
      <point x="222" y="1125"/>
      <point x="222" y="943" type="curve" smooth="yes"/>
      <point x="222" y="761"/>
      <point x="180" y="591"/>
    </contour>
  </outline>
</glyph>
<glyph name="period.numr" format="1">
  <advance width="374"/>
  <outline>
    <contour>
      <point x="87" y="631" type="curve" smooth="yes" name="hr00"/>
      <point x="87" y="568"/>
      <point x="129" y="527"/>
      <point x="188" y="527" type="curve" smooth="yes"/>
      <point x="245" y="527"/>
      <point x="286" y="568"/>
      <point x="286" y="631" type="curve" smooth="yes"/>
      <point x="286" y="692"/>
      <point x="245" y="736"/>
      <point x="188" y="736" type="curve" smooth="yes"/>
      <point x="129" y="736"/>
      <point x="87" y="692"/>
    </contour>
  </outline>
</glyph>
<glyph name="pha_ra_nukta-deva" format="1">
  <advance width="1579"/>
  <outline>
    <contour>
      <point x="499" y="99"/>
      <point x="469" y="70"/>
      <point x="469" y="1" type="curve" smooth="yes"/>
      <point x="469" y="-67"/>
      <point x="499" y="-96"/>
      <point x="568" y="-96" type="curve" smooth="yes"/>
      <point x="637" y="-96"/>
      <point x="666" y="-67"/>
      <point x="666" y="1" type="curve" smooth="yes"/>
      <point x="666" y="70"/>
      <point x="637" y="99"/>
      <point x="568" y="99" type="curve" smooth="yes"/>
    </contour>
    <component base="pha_ra-deva"/>
    <contour>
      <point x="871" y="1167" type="move" name="top"/>
    </contour>
    <contour>
      <point x="876" y="27" type="move" name="bottom"/>
    </contour>
    <contour>
      <point x="873" y="1167" type="move" name="topcandra"/>
    </contour>
  </outline>
</glyph>
<glyph name="rakar_uMatra-deva" format="1">
  <advance width="600"/>
  <outline>
    <component base="rakar-deva" xOffset="1" yOffset="-6"/>
    <component base="uMatra-deva" xOffset="88" yOffset="18"/>
    <contour>
      <point x="279" y="367" type="move" name="_bottom"/>
    </contour>
  </outline>
</glyph>
<glyph name="reph_anusvara-deva" format="1">
  <advance width="555"/>
  <outline>
    <contour>
      <point x="332" y="1515"/>
      <point x="304" y="1488"/>
      <point x="304" y="1425" type="curve" smooth="yes"/>
      <point x="304" y="1362"/>
      <point x="332" y="1336"/>
      <point x="395" y="1336" type="curve" smooth="yes"/>
      <point x="460" y="1336"/>
      <point x="487" y="1362"/>
      <point x="487" y="1425" type="curve" smooth="yes"/>
      <point x="487" y="1488"/>
      <point x="460" y="1515"/>
      <point x="395" y="1515" type="curve" smooth="yes"/>
    </contour>
    <component base="reph-deva" xOffset="3"/>
    <contour>
      <point x="351" y="1602" type="move" name="topcandra"/>
    </contour>
    <contour>
      <point x="187" y="1167" type="move" name="_top"/>
    </contour>
  </outline>
</glyph>
<glyph name="sh-deva.loclMAR" format="1">
  <advance width="821"/>
  <outline>
    <contour>
      <point x="192" y="936"/>
      <point x="79" y="821"/>
      <point x="80" y="687" type="curve" smooth="yes"/>
      <point x="81" y="587"/>
      <point x="136" y="496"/>
      <point x="285" y="422" type="curve"/>
      <point x="365" y="531" type="line"/>
      <point x="282" y="585"/>
      <point x="259" y="626"/>
      <point x="259" y="673" type="curve" smooth="yes"/>
      <point x="259" y="739"/>
      <point x="314" y="778"/>
      <point x="408" y="778" type="curve" smooth="yes"/>
      <point x="529" y="778"/>
      <point x="581" y="698"/>
      <point x="581" y="591" type="curve" smooth="yes"/>
      <point x="581" y="399"/>
      <point x="448" y="270"/>
      <point x="180" y="167" type="curve"/>
      <point x="304" y="52" type="line"/>
      <point x="581" y="153"/>
      <point x="766" y="327"/>
      <point x="766" y="594" type="curve" smooth="yes"/>
      <point x="766" y="777"/>
      <point x="654" y="936"/>
      <point x="404" y="936" type="curve" smooth="yes"/>
    </contour>
    <contour>
      <point x="201" y="147" type="line"/>
      <point x="637" y="-406" type="line"/>
      <point x="783" y="-283" type="line"/>
      <point x="329" y="197" type="line"/>
    </contour>
    <contour>
      <point x="113" y="319" type="line"/>
      <point x="75" y="250"/>
      <point x="64" y="192"/>
      <point x="64" y="151" type="curve" smooth="yes"/>
      <point x="63" y="58"/>
      <point x="131" y="21"/>
      <point x="187" y="21" type="curve" smooth="yes"/>
      <point x="251" y="21"/>
      <point x="301" y="40"/>
      <point x="405" y="93" type="curve"/>
      <point x="386" y="134" type="line"/>
      <point x="228" y="319" type="line"/>
    </contour>
    <contour>
      <point x="336" y="1197" type="line"/>
      <point x="336" y="851" type="line"/>
      <point x="526" y="851" type="line"/>
      <point x="526" y="1197" type="line"/>
    </contour>
    <contour>
      <point x="-20" y="1277" type="line"/>
      <point x="-20" y="1114" type="line"/>
      <point x="841" y="1114" type="line"/>
      <point x="841" y="1277" type="line"/>
    </contour>
  </outline>
</glyph>
<glyph name="sh_ca-deva" format="1">
  <advance width="1375"/>
  <outline>
    <contour>
      <point x="282" y="1310"/>
      <point x="149" y="1210"/>
      <point x="149" y="1034" type="curve" smooth="yes"/>
      <point x="149" y="939"/>
      <point x="198" y="838"/>
      <point x="346" y="736" type="curve"/>
      <point x="502" y="809" type="line"/>
      <point x="363" y="896"/>
      <point x="329" y="955"/>
      <point x="329" y="1020" type="curve" smooth="yes"/>
      <point x="329" y="1104"/>
      <point x="374" y="1154"/>
      <point x="477" y="1154" type="curve" smooth="yes"/>
      <point x="568" y="1154"/>
      <point x="618" y="1108"/>
      <point x="618" y="1024" type="curve" smooth="yes"/>
      <point x="618" y="938"/>
      <point x="561" y="879"/>
      <point x="438" y="805" type="curve" smooth="yes"/>
      <point x="305" y="725"/>
      <point x="180" y="658"/>
      <point x="55" y="593" type="curve"/>
      <point x="135" y="449" type="line"/>
      <point x="276" y="523"/>
      <point x="404" y="591"/>
      <point x="557" y="687" type="curve" smooth="yes"/>
      <point x="702" y="777"/>
      <point x="802" y="882"/>
      <point x="802" y="1034" type="curve" smooth="yes"/>
      <point x="802" y="1219"/>
      <point x="673" y="1310"/>
      <point x="476" y="1310" type="curve" smooth="yes"/>
    </contour>
    <contour>
      <point x="167" y="257" type="line"/>
      <point x="246" y="117" type="line"/>
      <point x="675" y="373" type="line"/>
      <point x="599" y="505" type="line"/>
    </contour>
    <contour>
      <point x="994" y="252"/>
      <point x="854" y="54"/>
      <point x="682" y="50" type="curve" smooth="yes"/>
      <point x="595" y="49"/>
      <point x="537" y="87"/>
      <point x="537" y="173" type="curve" smooth="yes"/>
      <point x="537" y="247"/>
      <point x="585" y="312"/>
      <point x="675" y="373" type="curve"/>
      <point x="625" y="417" type="line"/>
      <point x="507" y="330" type="line"/>
      <point x="418" y="262"/>
      <point x="375" y="206"/>
      <point x="375" y="120" type="curve" smooth="yes"/>
      <point x="375" y="-24"/>
      <point x="486" y="-119"/>
      <point x="647" y="-119" type="curve" smooth="yes"/>
      <point x="857" y="-119"/>
      <point x="1013" y="20"/>
      <point x="1095" y="298" type="curve"/>
      <point x="1006" y="440" type="line"/>
    </contour>
    <contour>
      <point x="415" y="685" type="line"/>
      <point x="640" y="548"/>
      <point x="864" y="502"/>
      <point x="1109" y="546" type="curve"/>
      <point x="1103" y="698" type="line"/>
      <point x="929" y="656"/>
      <point x="711" y="689"/>
      <point x="548" y="786" type="curve"/>
    </contour>
    <contour>
      <point x="1001" y="1204" type="line"/>
      <point x="1001" y="-62" type="line"/>
      <point x="1190" y="-62" type="line"/>
      <point x="1190" y="1204" type="line"/>
    </contour>
    <contour>
      <point x="882" y="1277" type="line"/>
      <point x="882" y="1114" type="line"/>
      <point x="1392" y="1114" type="line"/>
      <point x="1392" y="1277" type="line"/>
    </contour>
    <contour>
      <point x="1096" y="1167" type="move" name="top"/>
    </contour>
    <contour>
      <point x="1093" y="-37" type="move" name="bottom"/>
    </contour>
    <contour>
      <point x="817" y="1167" type="move" name="topcandra"/>
    </contour>
  </outline>
</glyph>
<glyph name="t_kh_na-deva" format="1">
  <advance width="2721"/>
  <outline>
    <contour>
      <point x="957" y="1172" type="line"/>
      <point x="957" y="808" type="line" smooth="yes"/>
      <point x="957" y="725"/>
      <point x="934" y="683"/>
      <point x="875" y="683" type="curve" smooth="yes"/>
      <point x="842" y="683"/>
      <point x="810" y="693"/>
      <point x="770" y="727" type="curve"/>
      <point x="653" y="645" type="line"/>
      <point x="866" y="113"/>
      <point x="1090" y="-58"/>
      <point x="1413" y="-58" type="curve" smooth="yes"/>
      <point x="1487" y="-58"/>
      <point x="1577" y="-48"/>
      <point x="1649" y="-19" type="curve"/>
      <point x="1615" y="138" type="line"/>
      <point x="1555" y="121"/>
      <point x="1483" y="107"/>
      <point x="1405" y="107" type="curve" smooth="yes"/>
      <point x="1182" y="107"/>
      <point x="1001" y="235"/>
      <point x="866" y="585" type="curve"/>
      <point x="846" y="551" type="line"/>
      <point x="869" y="542"/>
      <point x="900" y="530"/>
      <point x="943" y="530" type="curve" smooth="yes"/>
      <point x="1033" y="530"/>
      <point x="1146" y="580"/>
      <point x="1146" y="798" type="curve" smooth="yes"/>
      <point x="1146" y="1172" type="line"/>
    </contour>
    <contour>
      <point x="199" y="850"/>
      <point x="65" y="750"/>
      <point x="65" y="567" type="curve" smooth="yes"/>
      <point x="65" y="365"/>
      <point x="190" y="131"/>
      <point x="320" y="-36" type="curve"/>
      <point x="468" y="63" type="line"/>
      <point x="315" y="289"/>
      <point x="258" y="433"/>
      <point x="258" y="539" type="curve" smooth="yes"/>
      <point x="258" y="629"/>
      <point x="303" y="674"/>
      <point x="446" y="674" type="curve" smooth="yes"/>
      <point x="560" y="674"/>
      <point x="643" y="640"/>
      <point x="800" y="507" type="curve"/>
      <point x="782" y="718" type="line"/>
      <point x="671" y="814"/>
      <point x="564" y="850"/>
      <point x="443" y="850" type="curve" smooth="yes"/>
    </contour>
    <contour>
      <point x="-18" y="1277" type="line"/>
      <point x="-18" y="1114" type="line"/>
      <point x="650" y="1114" type="line"/>
      <point x="650" y="1277" type="line"/>
    </contour>
    <contour>
      <point x="1399" y="979"/>
      <point x="1231" y="893"/>
      <point x="1230" y="620" type="curve" smooth="yes"/>
      <point x="1230" y="424"/>
      <point x="1326" y="274"/>
      <point x="1568" y="274" type="curve" smooth="yes"/>
      <point x="1748" y="274"/>
      <point x="1871" y="354"/>
      <point x="1935" y="474" type="curve"/>
      <point x="1855" y="600" type="line"/>
      <point x="1793" y="489"/>
      <point x="1719" y="435"/>
      <point x="1594" y="435" type="curve" smooth="yes"/>
      <point x="1467" y="435"/>
      <point x="1420" y="489"/>
      <point x="1421" y="613" type="curve" smooth="yes"/>
      <point x="1421" y="790"/>
      <point x="1526" y="818"/>
      <point x="1650" y="818" type="curve" smooth="yes"/>
      <point x="1709" y="818"/>
      <point x="1827" y="808"/>
      <point x="1905" y="794" type="curve"/>
      <point x="1920" y="943" type="line"/>
      <point x="1842" y="961"/>
      <point x="1724" y="979"/>
      <point x="1642" y="979" type="curve" smooth="yes"/>
    </contour>
    <contour>
      <point x="580" y="1277" type="line"/>
      <point x="580" y="1114" type="line"/>
      <point x="1760" y="1114" type="line"/>
      <point x="1760" y="1277" type="line"/>
    </contour>
    <contour>
      <point x="1766" y="723" type="line"/>
      <point x="1766" y="571" type="line"/>
      <point x="1913" y="356" type="line"/>
      <point x="2050" y="356"/>
      <point x="2071" y="432"/>
      <point x="2071" y="526" type="curve" smooth="yes"/>
      <point x="2071" y="723" type="line"/>
    </contour>
    <contour>
      <point x="1914" y="723" type="line"/>
      <point x="1914" y="555" type="line"/>
      <point x="2445" y="555" type="line"/>
      <point x="2445" y="723" type="line"/>
    </contour>
    <contour>
      <point x="2346" y="1197" type="line"/>
      <point x="2346" y="0" type="line"/>
      <point x="2536" y="0" type="line"/>
      <point x="2536" y="1197" type="line"/>
    </contour>
    <contour>
      <point x="1722" y="1277" type="line"/>
      <point x="1722" y="1114" type="line"/>
      <point x="2738" y="1114" type="line"/>
      <point x="2738" y="1277" type="line"/>
    </contour>
    <contour>
      <point x="1921" y="72" type="move" name="nukta"/>
    </contour>
    <contour>
      <point x="2450" y="1167" type="move" name="top"/>
    </contour>
    <contour>
      <point x="2174" y="1167" type="move" name="topcandra"/>
    </contour>
    <contour>
      <point x="2450" y="27" type="move" name="bottom"/>
    </contour>
  </outline>
</glyph>
<glyph name="t_t_ya-deva" format="1">
  <advance width="2350"/>
  <outline>
    <contour>
      <point x="200" y="859"/>
      <point x="66" y="759"/>
      <point x="66" y="576" type="curve" smooth="yes"/>
      <point x="66" y="365"/>
      <point x="191" y="131"/>
      <point x="321" y="-36" type="curve"/>
      <point x="469" y="63" type="line"/>
      <point x="316" y="289"/>
      <point x="259" y="433"/>
      <point x="259" y="548" type="curve" smooth="yes"/>
      <point x="259" y="648"/>
      <point x="307" y="683"/>
      <point x="462" y="683" type="curve" smooth="yes"/>
      <point x="616" y="683"/>
      <point x="682" y="641"/>
      <point x="827" y="531" type="curve"/>
      <point x="809" y="743" type="line"/>
      <point x="710" y="823"/>
      <point x="591" y="859"/>
      <point x="429" y="859" type="curve" smooth="yes"/>
    </contour>
    <contour>
      <point x="808" y="859"/>
      <point x="674" y="759"/>
      <point x="674" y="576" type="curve" smooth="yes"/>
      <point x="674" y="365"/>
      <point x="799" y="131"/>
      <point x="929" y="-36" type="curve"/>
      <point x="1077" y="63" type="line"/>
      <point x="924" y="289"/>
      <point x="867" y="433"/>
      <point x="867" y="548" type="curve" smooth="yes"/>
      <point x="867" y="648"/>
      <point x="915" y="683"/>
      <point x="1070" y="683" type="curve" smooth="yes"/>
      <point x="1224" y="683"/>
      <point x="1290" y="641"/>
      <point x="1410" y="557" type="curve"/>
      <point x="1412" y="747" type="line"/>
      <point x="1318" y="823"/>
      <point x="1199" y="859"/>
      <point x="1037" y="859" type="curve" smooth="yes"/>
    </contour>
    <contour>
      <point x="-18" y="1277" type="line"/>
      <point x="-18" y="1114" type="line"/>
      <point x="640" y="1114" type="line"/>
      <point x="640" y="1277" type="line"/>
    </contour>
    <contour>
      <point x="578" y="1277" type="line"/>
      <point x="578" y="1114" type="line"/>
      <point x="1236" y="1114" type="line"/>
      <point x="1236" y="1277" type="line"/>
    </contour>
    <component base="ya-deva" xOffset="1192"/>
  </outline>
</glyph>
<glyph name="t_ta-deva" format="1">
  <advance width="1293"/>
  <outline>
    <contour>
      <point x="73" y="849" type="line"/>
      <point x="73" y="677" type="line"/>
      <point x="630" y="677" type="line"/>
      <point x="630" y="849" type="line"/>
    </contour>
    <contour>
      <point x="-18" y="1277" type="line"/>
      <point x="-18" y="1114" type="line"/>
      <point x="368" y="1114" type="line"/>
      <point x="368" y="1277" type="line"/>
    </contour>
    <component base="ta-deva" xOffset="185"/>
    <contour>
      <point x="1021" y="1167" type="move" name="top"/>
    </contour>
    <contour>
      <point x="1019" y="27" type="move" name="bottom"/>
    </contour>
    <contour>
      <point x="683" y="1167" type="move" name="topcandra"/>
    </contour>
  </outline>
</glyph>
<glyph name="tt_va-deva" format="1">
  <advance width="1047"/>
  <outline>
    <contour>
      <point x="618" y="1211" type="line"/>
      <point x="618" y="923" type="line"/>
      <point x="713" y="953" type="line"/>
      <point x="656" y="968"/>
      <point x="594" y="976"/>
      <point x="527" y="976" type="curve" smooth="yes"/>
      <point x="310" y="976"/>
      <point x="116" y="887"/>
      <point x="116" y="643" type="curve" smooth="yes"/>
      <point x="116" y="369"/>
      <point x="358" y="273"/>
      <point x="572" y="273" type="curve" smooth="yes"/>
      <point x="694" y="273"/>
      <point x="832" y="300"/>
      <point x="941" y="359" type="curve"/>
      <point x="894" y="503" type="line"/>
      <point x="778" y="453"/>
      <point x="676" y="430"/>
      <point x="571" y="430" type="curve" smooth="yes"/>
      <point x="362" y="430"/>
      <point x="300" y="506"/>
      <point x="300" y="638" type="curve" smooth="yes"/>
      <point x="300" y="828"/>
      <point x="503" y="832"/>
      <point x="608" y="832" type="curve" smooth="yes"/>
      <point x="673" y="832"/>
      <point x="738" y="828"/>
      <point x="797" y="825" type="curve"/>
      <point x="797" y="1211" type="line"/>
    </contour>
    <contour>
      <point x="254" y="164"/>
      <point x="124" y="51"/>
      <point x="124" y="-151" type="curve" smooth="yes"/>
      <point x="124" y="-343"/>
      <point x="244" y="-471"/>
      <point x="440" y="-471" type="curve" smooth="yes"/>
      <point x="552" y="-471"/>
      <point x="700" y="-426"/>
      <point x="776" y="-289" type="curve"/>
      <point x="725" y="-185" type="line"/>
      <point x="658" y="-272"/>
      <point x="567" y="-321"/>
      <point x="463" y="-321" type="curve" smooth="yes"/>
      <point x="362" y="-321"/>
      <point x="303" y="-276"/>
      <point x="303" y="-160" type="curve" smooth="yes"/>
      <point x="303" y="-26"/>
      <point x="387" y="4"/>
      <point x="494" y="6" type="curve" smooth="yes"/>
      <point x="562" y="7"/>
      <point x="675" y="-4"/>
      <point x="772" y="-48" type="curve"/>
      <point x="772" y="48" type="line"/>
      <point x="702" y="125"/>
      <point x="582" y="164"/>
      <point x="463" y="164" type="curve" smooth="yes"/>
    </contour>
    <contour>
      <point x="691" y="393" type="line"/>
      <point x="691" y="-548" type="line"/>
      <point x="870" y="-548" type="line"/>
      <point x="870" y="393" type="line"/>
    </contour>
    <contour>
      <point x="-18" y="1277" type="line"/>
      <point x="-18" y="1114" type="line"/>
      <point x="1064" y="1114" type="line"/>
      <point x="1064" y="1277" type="line"/>
    </contour>
    <contour>
      <point x="707" y="1167" type="move" name="top"/>
    </contour>
    <contour>
      <point x="784" y="-523" type="move" name="bottom"/>
    </contour>
    <contour>
      <point x="532" y="1167" type="move" name="topcandra"/>
    </contour>
  </outline>
</glyph>
<glyph name="tth_ya-deva" format="1">
  <advance width="2355"/>
  <outline>
    <component base="ttha-deva"/>
    <component base="ya-deva.post" xOffset="1176"/>
    <contour>
      <point x="2076" y="1167" type="move" name="top"/>
    </contour>
    <contour>
      <point x="2076" y="27" type="move" name="bottom"/>
    </contour>
    <contour>
      <point x="2074" y="1167" type="move" name="topcandra"/>
    </contour>
  </outline>
</glyph>
<glyph name="two.numr" format="1">
  <advance width="785"/>
  <outline>
    <contour>
      <point x="118" y="544" type="line" name="hr00"/>
      <point x="675" y="544" type="line"/>
      <point x="675" y="669" type="line"/>
      <point x="355" y="669" type="line"/>
      <point x="514" y="834"/>
      <point x="637" y="956"/>
      <point x="637" y="1106" type="curve" smooth="yes"/>
      <point x="637" y="1277"/>
      <point x="528" y="1367"/>
      <point x="365" y="1367" type="curve" smooth="yes"/>
      <point x="255" y="1367"/>
      <point x="157" y="1305"/>
      <point x="92" y="1211" type="curve"/>
      <point x="179" y="1132" type="line"/>
      <point x="224" y="1196"/>
      <point x="280" y="1243"/>
      <point x="346" y="1243" type="curve" smooth="yes"/>
      <point x="436" y="1243"/>
      <point x="492" y="1182"/>
      <point x="492" y="1084" type="curve" smooth="yes"/>
      <point x="492" y="966"/>
      <point x="359" y="840"/>
      <point x="118" y="627" type="curve"/>
    </contour>
  </outline>
</glyph>
<glyph name="uni013C.a" format="1">
  <advance width="515"/>
  <outline>
    <contour>
      <point x="162" y="0" type="line"/>
      <point x="354" y="0" type="line"/>
      <point x="354" y="1454" type="line"/>
      <point x="162" y="1454" type="line"/>
    </contour>
    <contour>
      <point x="196" y="-96" type="curve"/>
      <point x="155" y="-180" type="line"/>
      <point x="213" y="-194"/>
      <point x="256" y="-217"/>
      <point x="256" y="-267" type="curve" smooth="yes"/>
      <point x="256" y="-319"/>
      <point x="181" y="-345"/>
      <point x="77" y="-358" type="curve"/>
      <point x="94" y="-447" type="line"/>
      <point x="257" y="-435"/>
      <point x="403" y="-379"/>
      <point x="403" y="-256" type="curve" smooth="yes"/>
      <point x="403" y="-163"/>
      <point x="341" y="-116"/>
    </contour>
  </outline>
</glyph>
<glyph name="uni03020306" format="1">
  <advance width="0"/>
  <outline>
    <contour>
      <point x="-263" y="1170" type="line" name="hr00"/>
      <point x="-130" y="1170" type="line"/>
      <point x="-4" y="1301" type="line"/>
      <point x="4" y="1301" type="line"/>
      <point x="130" y="1170" type="line"/>
      <point x="263" y="1170" type="line"/>
      <point x="89" y="1385" type="line"/>
      <point x="-89" y="1385" type="line"/>
    </contour>
    <contour>
      <point x="0" y="1449" type="curve" smooth="yes"/>
      <point x="159" y="1449"/>
      <point x="233" y="1547"/>
      <point x="241" y="1654" type="curve"/>
      <point x="139" y="1654" type="line"/>
      <point x="129" y="1596"/>
      <point x="88" y="1550"/>
      <point x="0" y="1550" type="curve" smooth="yes"/>
      <point x="-88" y="1550"/>
      <point x="-129" y="1596"/>
      <point x="-139" y="1654" type="curve"/>
      <point x="-241" y="1654" type="line"/>
      <point x="-233" y="1547"/>
      <point x="-159" y="1449"/>
    </contour>
  </outline>
</glyph>
<glyph name="uni0306.cap" format="1">
  <advance width="600"/>
  <outline>
    <contour>
      <point x="0" y="1448" type="curve" smooth="yes"/>
      <point x="167" y="1448"/>
      <point x="243" y="1557"/>
      <point x="257" y="1676" type="curve"/>
      <point x="144" y="1676" type="line"/>
      <point x="131" y="1614"/>
      <point x="88" y="1554"/>
      <point x="0" y="1554" type="curve" smooth="yes"/>
      <point x="-88" y="1554"/>
      <point x="-131" y="1614"/>
      <point x="-144" y="1676" type="curve"/>
      <point x="-257" y="1676" type="line"/>
      <point x="-243" y="1557"/>
      <point x="-167" y="1448"/>
    </contour>
    <contour>
      <point x="0" y="1387" type="move" name="_mark0"/>
    </contour>
  </outline>
</glyph>
<glyph name="uni1EB3.a" format="1">
  <advance width="1144"/>
  <outline>
    <contour>
      <point x="292" y="501" type="curve" smooth="yes"/>
      <point x="292" y="721"/>
      <point x="411" y="864"/>
      <point x="560" y="864" type="curve" smooth="yes"/>
      <point x="637" y="864"/>
      <point x="710" y="837"/>
      <point x="788" y="766" type="curve"/>
      <point x="788" y="265" type="line"/>
      <point x="712" y="177"/>
      <point x="637" y="136"/>
      <point x="550" y="136" type="curve" smooth="yes"/>
      <point x="387" y="136"/>
      <point x="292" y="269"/>
    </contour>
    <contour>
      <point x="93" y="498" type="curve" smooth="yes"/>
      <point x="93" y="166"/>
      <point x="255" y="-25"/>
      <point x="506" y="-25" type="curve" smooth="yes"/>
      <point x="619" y="-25"/>
      <point x="724" y="39"/>
      <point x="801" y="114" type="curve"/>
      <point x="807" y="114" type="line"/>
      <point x="823" y="0" type="line"/>
      <point x="982" y="0" type="line"/>
      <point x="982" y="999" type="line"/>
      <point x="826" y="999" type="line"/>
      <point x="810" y="902" type="line"/>
      <point x="805" y="902" type="line"/>
      <point x="717" y="983"/>
      <point x="635" y="1024"/>
      <point x="526" y="1024" type="curve" smooth="yes"/>
      <point x="302" y="1024"/>
      <point x="93" y="823"/>
    </contour>
    <contour>
      <point x="586" y="1178" type="curve" smooth="yes"/>
      <point x="765" y="1178"/>
      <point x="839" y="1316"/>
      <point x="849" y="1442" type="curve"/>
      <point x="751" y="1442" type="line"/>
      <point x="738" y="1359"/>
      <point x="688" y="1283"/>
      <point x="586" y="1283" type="curve" smooth="yes"/>
      <point x="482" y="1283"/>
      <point x="432" y="1359"/>
      <point x="420" y="1442" type="curve"/>
      <point x="321" y="1442" type="line"/>
      <point x="331" y="1316"/>
      <point x="406" y="1178"/>
    </contour>
    <contour>
      <point x="527" y="1405" type="line"/>
      <point x="630" y="1426"/>
      <point x="727" y="1465"/>
      <point x="727" y="1578" type="curve" smooth="yes"/>
      <point x="727" y="1676"/>
      <point x="641" y="1725"/>
      <point x="469" y="1730" type="curve"/>
      <point x="453" y="1638" type="line"/>
      <point x="553" y="1633"/>
      <point x="593" y="1608"/>
      <point x="593" y="1557" type="curve" smooth="yes"/>
      <point x="593" y="1515"/>
      <point x="557" y="1495"/>
      <point x="509" y="1481" type="curve"/>
    </contour>
  </outline>
</glyph>
<glyph name="v_la-deva.loclMAR" format="1">
  <advance width="1187"/>
  <outline>
    <contour>
      <point x="245" y="961"/>
      <point x="115" y="846"/>
      <point x="115" y="625" type="curve" smooth="yes"/>
      <point x="115" y="445"/>
      <point x="201" y="282"/>
      <point x="467" y="282" type="curve" smooth="yes"/>
      <point x="640" y="282"/>
      <point x="771" y="344"/>
      <point x="851" y="460" type="curve"/>
      <point x="815" y="602" type="line"/>
      <point x="734" y="500"/>
      <point x="635" y="443"/>
      <point x="493" y="443" type="curve" smooth="yes"/>
      <point x="368" y="443"/>
      <point x="306" y="482"/>
      <point x="306" y="614" type="curve" smooth="yes"/>
      <point x="306" y="743"/>
      <point x="371" y="794"/>
      <point x="513" y="796" type="curve" smooth="yes"/>
      <point x="630" y="799"/>
      <point x="744" y="781"/>
      <point x="852" y="752" type="curve"/>
      <point x="848" y="844" type="line"/>
      <point x="769" y="923"/>
      <point x="652" y="961"/>
      <point x="481" y="961" type="curve" smooth="yes"/>
    </contour>
    <contour>
      <point x="776" y="1196" type="line"/>
      <point x="776" y="43" type="line"/>
      <point x="965" y="43" type="line"/>
      <point x="965" y="1196" type="line"/>
    </contour>
    <contour>
      <point x="-18" y="1277" type="line"/>
      <point x="-18" y="1114" type="line"/>
      <point x="1204" y="1114" type="line"/>
      <point x="1204" y="1277" type="line"/>
    </contour>
    <contour>
      <point x="629" y="183"/>
      <point x="517" y="31"/>
      <point x="517" y="-166" type="curve" smooth="yes"/>
      <point x="517" y="-207"/>
      <point x="521" y="-247"/>
      <point x="535" y="-284" type="curve"/>
      <point x="696" y="-266" type="line"/>
      <point x="691" y="-238"/>
      <point x="689" y="-211"/>
      <point x="689" y="-183" type="curve" smooth="yes"/>
      <point x="689" y="-68"/>
      <point x="741" y="13"/>
      <point x="845" y="13" type="curve" smooth="yes"/>
      <point x="937" y="13"/>
      <point x="994" y="-44"/>
      <point x="994" y="-145" type="curve" smooth="yes"/>
      <point x="994" y="-238"/>
      <point x="967" y="-340"/>
      <point x="794" y="-467" type="curve"/>
      <point x="888" y="-594" type="line"/>
      <point x="1103" y="-462"/>
      <point x="1168" y="-282"/>
      <point x="1168" y="-149" type="curve" smooth="yes"/>
      <point x="1168" y="56"/>
      <point x="1045" y="183"/>
      <point x="839" y="183" type="curve" smooth="yes"/>
    </contour>
    <contour>
      <point x="133" y="181"/>
      <point x="20" y="63"/>
      <point x="20" y="-118" type="curve" smooth="yes"/>
      <point x="20" y="-344"/>
      <point x="152" y="-484"/>
      <point x="329" y="-589" type="curve"/>
      <point x="410" y="-461" type="line"/>
      <point x="257" y="-364"/>
      <point x="203" y="-270"/>
      <point x="203" y="-144" type="curve" smooth="yes"/>
      <point x="203" y="-32"/>
      <point x="274" y="10"/>
      <point x="355" y="10" type="curve" smooth="yes"/>
      <point x="460" y="10"/>
      <point x="533" y="-74"/>
      <point x="602" y="-193" type="curve"/>
      <point x="624" y="-71" type="line"/>
      <point x="554" y="107"/>
      <point x="453" y="181"/>
      <point x="313" y="181" type="curve" smooth="yes"/>
    </contour>
    <contour>
      <point x="871" y="1167" type="move" name="top"/>
    </contour>
    <contour>
      <point x="839" y="-482" type="move" name="bottom"/>
    </contour>
    <contour>
      <point x="569" y="1167" type="move" name="topcandra"/>
    </contour>
  </outline>
</glyph>
<glyph name="va-deva.post" format="1">
  <advance width="1272"/>
  <outline>
    <contour>
      <point x="411" y="55"/>
      <point x="281" y="-58"/>
      <point x="281" y="-260" type="curve" smooth="yes"/>
      <point x="281" y="-452"/>
      <point x="401" y="-580"/>
      <point x="597" y="-580" type="curve" smooth="yes"/>
      <point x="709" y="-580"/>
      <point x="857" y="-535"/>
      <point x="933" y="-398" type="curve"/>
      <point x="882" y="-294" type="line"/>
      <point x="815" y="-380"/>
      <point x="724" y="-430"/>
      <point x="620" y="-430" type="curve" smooth="yes"/>
      <point x="519" y="-430"/>
      <point x="460" y="-385"/>
      <point x="460" y="-269" type="curve" smooth="yes"/>
      <point x="460" y="-135"/>
      <point x="544" y="-105"/>
      <point x="651" y="-103" type="curve" smooth="yes"/>
      <point x="719" y="-102"/>
      <point x="832" y="-112"/>
      <point x="929" y="-157" type="curve"/>
      <point x="929" y="-61" type="line"/>
      <point x="859" y="17"/>
      <point x="731" y="55"/>
      <point x="612" y="55" type="curve" smooth="yes"/>
    </contour>
    <contour>
      <point x="848" y="312" type="line"/>
      <point x="848" y="-657" type="line"/>
      <point x="1027" y="-657" type="line"/>
      <point x="1027" y="312" type="line"/>
    </contour>
    <contour>
      <point x="941" y="1167" type="move" name="top"/>
    </contour>
    <contour>
      <point x="934" y="-616" type="move" name="bottom"/>
    </contour>
  </outline>
</glyph>
<glyph name="ya_ra-deva" format="1">
  <advance width="1158"/>
  <outline>
    <contour>
      <point x="136" y="92" type="line"/>
      <point x="250" y="-45" type="line"/>
      <point x="852" y="400" type="line"/>
      <point x="726" y="486" type="line"/>
    </contour>
    <component base="ya-deva"/>
    <contour>
      <point x="882" y="1167" type="move" name="top"/>
    </contour>
    <contour>
      <point x="884" y="27" type="move" name="bottom"/>
    </contour>
    <contour>
      <point x="581" y="1167" type="move" name="topcandra"/>
    </contour>
  </outline>
</glyph>
